<svg version="1.1" id="Layer_1" xmlns="http://www.w3.org/2000/svg" xmlns:xlink="http://www.w3.org/1999/xlink" x="0px" y="0px"
	 width="100%" viewBox="0 0 879 655" enable-background="new 0 0 879 655" xml:space="preserve">
<path fill="#193F5A" opacity="1.000000" stroke="none" 
	d="
M615.000000,656.000000 
	C410.000000,656.000000 205.500000,656.000000 1.000000,656.000000 
	C1.000000,437.666656 1.000000,219.333328 1.000000,1.000000 
	C294.000000,1.000000 587.000000,1.000000 880.000000,1.000000 
	C880.000000,219.333328 880.000000,437.666656 880.000000,656.000000 
	C791.833313,656.000000 703.666687,656.000000 615.000000,656.000000 
M218.911133,348.897675 
	C214.812592,355.146790 208.547165,357.258698 201.397095,357.520599 
	C201.397095,359.541565 201.397095,361.094849 201.397095,363.218628 
	C208.749084,363.218628 215.847427,363.218628 222.930984,364.048279 
	C223.403427,366.828339 223.558456,369.709198 224.403793,372.370850 
	C227.878922,383.312775 231.631027,394.166443 235.148087,405.095428 
	C237.472610,412.318695 236.098175,414.760559 229.501007,418.399139 
	C222.926498,422.025208 216.190155,421.743896 209.187759,420.598267 
	C200.717514,419.212555 193.229645,422.815704 189.603760,430.282928 
	C183.178436,443.515320 183.862595,456.523834 192.483047,468.498230 
	C198.779800,477.244934 207.458633,482.824371 218.651505,480.592773 
	C229.012817,478.526978 236.675034,472.141296 238.512543,461.263367 
	C239.874268,453.202148 244.459579,449.266144 251.520416,446.507141 
	C256.406891,444.597717 259.320160,446.206787 262.231628,449.860809 
	C290.334015,485.130798 325.491669,510.593170 368.273254,525.075989 
	C379.268677,528.798218 390.735809,531.132690 401.999359,534.054077 
	C405.899811,535.065735 410.413300,535.677856 411.510620,540.241150 
	C414.099182,551.005432 414.716553,561.625854 407.405396,571.250183 
	C405.230743,574.112915 403.000122,577.392883 402.258026,580.800232 
	C399.771240,592.218506 405.096313,600.941650 413.547119,607.819824 
	C421.123413,613.986206 429.657745,614.427368 438.375031,610.020630 
	C444.713043,606.816589 449.210297,601.741089 452.183777,595.425659 
	C455.816681,587.709656 456.398773,580.469849 450.165833,573.146729 
	C447.530334,570.050354 446.864777,564.945129 446.182739,560.614563 
	C445.542725,556.550781 446.066864,552.304504 446.070496,548.138489 
	C446.081848,535.195923 447.046722,534.208496 460.015991,533.027649 
	C480.123016,531.196838 499.212738,525.493896 517.485718,517.140015 
	C543.213501,505.377991 565.556641,488.816589 585.313660,468.613190 
	C586.844482,467.047821 590.865234,465.737671 592.307190,466.623322 
	C600.863953,471.878723 610.399414,476.352386 613.672913,487.216278 
	C615.161316,492.156006 618.429382,495.617096 623.399414,497.164001 
	C637.584717,501.579163 653.003601,499.326355 663.767700,487.442078 
	C670.572937,479.928497 673.763367,471.279785 668.906677,461.305664 
	C664.507019,452.270081 656.582397,450.876160 647.515503,450.798523 
	C642.705200,450.757324 637.615845,449.408020 633.190857,447.439056 
	C628.393555,445.304413 624.146240,441.870575 619.797729,438.806610 
	C614.508118,435.079590 614.040710,432.157013 617.009033,426.468933 
	C621.628174,417.617462 626.828674,408.967529 630.409668,399.701538 
	C635.002686,387.817169 638.235229,375.407043 642.972168,363.061096 
	C652.599670,363.061096 662.227173,363.061096 672.113831,363.061096 
	C673.946350,352.237061 675.708984,341.825958 677.457642,331.497375 
	C673.155396,330.232178 671.291443,331.421997 669.916626,335.229523 
	C666.573608,344.488403 662.823181,346.813568 653.059692,346.882324 
	C650.731873,346.898712 648.402954,346.773041 646.212463,345.946014 
	C646.823181,340.674316 647.433838,335.402618 648.451416,329.593994 
	C657.504944,321.908112 665.782898,313.588989 671.512939,302.981720 
	C681.501404,284.491333 674.467896,265.393463 654.665527,258.760101 
	C649.393127,256.993958 643.582703,256.833984 637.883667,255.212540 
	C634.309875,246.967438 630.840698,238.674866 627.126953,230.493286 
	C624.477417,224.656128 624.454712,222.771118 630.202271,220.074509 
	C637.661133,216.574982 645.391541,213.211456 653.369324,211.352524 
	C670.411804,207.381378 680.708435,192.117340 676.780518,175.128159 
	C674.304382,164.418121 665.030334,155.717438 654.408508,154.139114 
	C642.318115,152.342560 631.524780,157.523346 625.958435,168.200806 
	C622.001953,175.790146 616.302673,181.665314 609.516602,186.674347 
	C598.466003,194.831116 600.171021,197.045013 587.320557,186.125046 
	C548.870667,153.451324 504.464722,134.064011 454.331329,127.909325 
	C451.161438,127.520180 448.008850,126.366951 448.141235,122.651833 
	C448.478485,113.186310 448.813660,103.699539 455.499115,95.823013 
	C461.483154,88.772888 463.516785,80.533806 460.851135,71.522987 
	C457.277100,59.441448 449.299286,51.660172 436.887848,49.360783 
	C426.165833,47.374371 416.833588,51.129234 410.376892,59.745544 
	C403.127075,69.420280 402.949921,80.039803 408.863281,90.730736 
	C413.541351,99.188263 414.328674,108.470856 413.863098,117.878815 
	C413.631927,122.550392 411.238373,125.513588 406.179993,126.154167 
	C397.122040,127.301247 388.021729,128.340179 379.077698,130.120499 
	C346.421753,136.620758 316.262451,148.871185 290.286591,170.177505 
	C284.507874,174.917465 279.294739,180.344803 273.790741,185.422653 
	C270.429199,188.523941 267.078705,188.783218 263.784119,185.249313 
	C258.989502,180.106476 254.358688,174.882935 252.926971,167.656448 
	C250.702408,156.428192 237.352371,144.460785 221.631287,147.921036 
	C206.410843,151.271072 195.541199,165.734390 197.094025,182.015503 
	C198.174683,193.346054 208.543289,205.797348 225.275711,206.058563 
	C233.313080,206.184036 239.539658,209.933456 244.478897,216.170425 
	C247.455383,219.928986 247.600494,223.540573 245.192047,227.671524 
	C242.260132,232.700317 239.452728,237.830521 237.011292,243.110962 
	C230.072189,258.119110 224.662079,273.644928 221.100479,290.273315 
	C215.012512,290.273315 208.924545,290.273315 202.538803,290.273315 
	C202.538803,292.360443 202.538803,293.923065 202.538803,294.354095 
	C206.068863,296.629761 209.358780,298.129974 211.813568,300.496490 
	C214.628510,303.210236 216.702728,306.692383 219.020294,310.734161 
	C219.079315,323.255371 219.138336,335.776581 218.911133,348.897675 
M110.993195,265.330048 
	C112.079796,268.871033 114.054199,272.398682 114.107475,275.955139 
	C114.429382,297.443420 114.528801,318.941010 114.253189,340.429749 
	C114.107399,351.796478 116.063400,355.791595 100.260529,357.890198 
	C100.260529,359.427277 100.260529,361.005188 100.260529,362.799042 
	C131.106155,362.799042 161.867172,362.799042 192.893982,362.799042 
	C193.629883,352.440155 194.353851,342.249268 195.085480,331.950439 
	C192.896011,331.950439 191.294647,331.950439 189.814774,331.950439 
	C188.519226,335.646271 187.486786,339.151489 186.073196,342.495575 
	C183.833603,347.793884 180.086838,351.690826 174.416458,353.300995 
	C164.274750,356.180756 154.005112,356.116760 143.798752,353.858398 
	C138.822571,352.757355 135.274155,349.355774 135.100769,344.146515 
	C134.747894,333.542969 134.995193,322.919464 134.995193,312.317596 
	C152.191406,309.441193 158.549728,312.916412 163.379944,327.874390 
	C164.785263,327.874390 166.227951,327.874390 167.872192,327.874390 
	C167.872192,314.595520 167.872192,301.490631 167.872192,288.263000 
	C166.178558,288.263000 164.647446,288.263000 163.188522,288.263000 
	C159.857178,302.795898 151.800919,307.258820 134.745972,304.001312 
	C134.745972,292.285004 134.637161,280.490845 134.903351,268.705139 
	C134.932022,267.435669 137.134888,265.145569 138.335526,265.141388 
	C147.977676,265.107880 157.652634,265.122101 167.255005,265.897003 
	C175.494690,266.561920 180.343521,271.760376 182.166183,279.783386 
	C182.494995,281.230804 182.920700,282.656219 183.291733,284.054382 
	C185.205185,284.054382 186.975708,284.054382 188.339294,284.054382 
	C188.339294,275.169434 188.339294,266.566132 188.339294,257.822693 
	C159.109940,257.822693 130.541046,257.822693 101.862144,257.822693 
	C101.862144,259.668488 101.862144,261.239441 101.862144,262.550476 
	C104.905525,263.395844 107.608864,264.146729 110.993195,265.330048 
M756.991089,356.936798 
	C749.459595,353.799896 746.931152,346.871094 748.829712,334.087677 
	C757.039490,334.150818 765.063782,334.210266 764.552734,346.077789 
	C766.528320,345.934265 767.942871,345.831482 769.360962,345.728455 
	C769.360962,334.647400 769.360962,323.905762 769.360962,313.078613 
	C767.637085,313.078613 766.205872,313.078613 764.823853,313.078613 
	C762.854858,323.883179 758.573486,327.035736 748.250122,325.074554 
	C748.250122,302.240479 748.250122,279.312347 748.250122,256.092224 
	C746.299255,256.092224 744.781738,256.289185 743.332703,256.057495 
	C737.622009,255.144455 734.133972,257.368622 730.770630,262.262604 
	C716.916504,282.421356 702.594421,302.261841 688.229126,322.063171 
	C685.447083,325.897949 684.569458,329.630005 685.803528,334.518250 
	C700.059814,334.518250 714.306702,334.518250 728.501160,334.518250 
	C729.829041,349.577362 728.069275,355.851685 714.278198,357.920288 
	C714.278198,359.458862 714.278198,361.032410 714.278198,362.805969 
	C729.875916,362.805969 745.306519,362.805969 760.848450,362.805969 
	C760.969177,360.110229 762.286682,357.041901 756.991089,356.936798 
M732.117065,396.647980 
	C731.238770,397.688568 730.360413,398.729156 729.042419,400.290619 
	C728.863525,397.128448 728.734741,394.851105 728.593140,392.347961 
	C724.427429,392.347961 720.530273,392.347961 716.423950,392.347961 
	C716.423950,409.630585 716.423950,426.654053 716.423950,443.704987 
	C720.792603,443.704987 724.858643,443.704987 729.169434,443.704987 
	C729.169434,435.267731 729.043274,427.132568 729.230957,419.004608 
	C729.306824,415.720734 729.645874,412.321320 730.614075,409.207367 
	C732.191650,404.133575 737.132324,401.654236 742.483948,402.315704 
	C747.999878,402.997498 749.517517,406.752747 749.723083,411.424866 
	C749.927673,416.074432 749.824463,420.738037 749.833984,425.395538 
	C749.846375,431.489624 749.837036,437.583740 749.837036,443.693848 
	C754.452515,443.693848 758.507141,443.693848 762.114807,443.693848 
	C762.114807,430.279297 762.625854,417.159271 761.918518,404.105286 
	C761.509766,396.562408 756.750671,392.705170 749.276428,391.511292 
	C743.073792,390.520477 737.370605,391.691833 732.117065,396.647980 
M701.166260,406.504822 
	C701.166260,401.768951 701.166260,397.033051 701.166260,392.363159 
	C696.447998,392.363159 692.524963,392.363159 688.435059,392.363159 
	C688.435059,409.655548 688.435059,426.675751 688.435059,443.694092 
	C692.812134,443.694092 696.878052,443.694092 701.166260,443.694092 
	C701.166260,431.421143 701.166260,419.462402 701.166260,406.504822 
M659.299194,438.075165 
	C660.357544,442.158081 663.086060,444.762726 667.182373,444.096527 
	C669.943237,443.647552 673.438049,442.003143 674.709045,439.799927 
	C675.849243,437.823456 675.416931,433.150421 673.852173,431.828461 
	C671.587219,429.914948 667.560364,429.012360 664.496765,429.390930 
	C660.673218,429.863373 659.086365,433.384674 659.299194,438.075165 
M686.894226,378.487732 
	C687.936340,383.793121 690.945129,386.363068 695.601562,385.925018 
	C699.710266,385.538513 702.922607,382.305786 702.728943,378.343903 
	C702.527405,374.221100 700.397095,371.488831 696.100098,370.918365 
	C691.100891,370.254700 688.333557,372.332703 686.894226,378.487732 
z"/>
<path fill="#48687D" opacity="1.000000" stroke="none" 
	d="
M642.053894,363.223419 
	C638.235229,375.407043 635.002686,387.817169 630.409668,399.701538 
	C626.828674,408.967529 621.628174,417.617462 617.009033,426.468933 
	C614.040710,432.157013 614.508118,435.079590 619.797729,438.806610 
	C624.146240,441.870575 628.393555,445.304413 633.190857,447.439056 
	C637.615845,449.408020 642.705200,450.757324 647.515503,450.798523 
	C656.582397,450.876160 664.507019,452.270081 668.906677,461.305664 
	C673.763367,471.279785 670.572937,479.928497 663.767700,487.442078 
	C653.003601,499.326355 637.584717,501.579163 623.399414,497.164001 
	C618.429382,495.617096 615.161316,492.156006 613.672913,487.216278 
	C610.399414,476.352386 600.863953,471.878723 592.307190,466.623322 
	C590.865234,465.737671 586.844482,467.047821 585.313660,468.613190 
	C565.556641,488.816589 543.213501,505.377991 517.485718,517.140015 
	C499.212738,525.493896 480.123016,531.196838 460.015991,533.027649 
	C447.046722,534.208496 446.081848,535.195923 446.070496,548.138489 
	C446.066864,552.304504 445.542725,556.550781 446.182739,560.614563 
	C446.864777,564.945129 447.530334,570.050354 450.165833,573.146729 
	C456.398773,580.469849 455.816681,587.709656 452.183777,595.425659 
	C449.210297,601.741089 444.713043,606.816589 438.375031,610.020630 
	C429.657745,614.427368 421.123413,613.986206 413.547119,607.819824 
	C405.096313,600.941650 399.771240,592.218506 402.258026,580.800232 
	C403.000122,577.392883 405.230743,574.112915 407.405396,571.250183 
	C414.716553,561.625854 414.099182,551.005432 411.510620,540.241150 
	C410.413300,535.677856 405.899811,535.065735 401.999359,534.054077 
	C390.735809,531.132690 379.268677,528.798218 368.273254,525.075989 
	C325.491669,510.593170 290.334015,485.130798 262.231628,449.860809 
	C259.320160,446.206787 256.406891,444.597717 251.520416,446.507141 
	C244.459579,449.266144 239.874268,453.202148 238.512543,461.263367 
	C236.675034,472.141296 229.012817,478.526978 218.651505,480.592773 
	C207.458633,482.824371 198.779800,477.244934 192.483047,468.498230 
	C183.862595,456.523834 183.178436,443.515320 189.603760,430.282928 
	C193.229645,422.815704 200.717514,419.212555 209.187759,420.598267 
	C216.190155,421.743896 222.926498,422.025208 229.501007,418.399139 
	C236.098175,414.760559 237.472610,412.318695 235.148087,405.095428 
	C231.631027,394.166443 227.878922,383.312775 224.403793,372.370850 
	C223.558456,369.709198 223.403427,366.828339 223.394562,363.550293 
	C227.254471,363.092102 230.650818,363.131866 234.035721,363.567047 
	C233.525894,365.858612 233.422714,367.993683 232.449799,369.602997 
	C230.170212,373.373688 230.936951,376.183197 233.658875,379.470032 
	C235.198074,381.328735 235.463943,384.342926 236.005676,386.899780 
	C236.614624,389.773834 236.298431,392.966095 237.399750,395.594604 
	C247.350388,419.343689 260.067719,441.398773 277.913452,460.218475 
	C283.372650,465.975616 288.832672,471.697083 297.993469,468.990356 
	C298.002533,469.001465 298.025604,469.019745 298.040558,469.400604 
	C297.693817,470.876862 297.464539,472.039886 296.946014,473.055145 
	C295.280792,476.315491 296.633301,478.491669 299.408295,480.109711 
	C302.424500,481.868408 304.033020,479.735199 305.510101,477.640900 
	C306.272003,476.560699 306.582947,475.096039 307.489502,474.202789 
	C308.420258,473.285645 309.828735,472.853241 311.028137,472.208679 
	C311.455688,473.612030 312.438110,475.124390 312.188538,476.394714 
	C311.748260,478.635406 310.282623,480.667053 309.780731,482.906036 
	C309.471497,484.285553 309.652802,486.580292 310.521088,487.206818 
	C311.520081,487.927673 313.673859,487.646881 315.045929,487.099213 
	C316.731628,486.426361 318.127563,485.027679 319.648773,483.942780 
	C320.027679,484.173004 320.406616,484.403229 320.785522,484.633453 
	C320.513580,486.286774 320.516754,488.048859 319.914886,489.571777 
	C318.474457,493.216583 319.595490,495.867920 322.865173,497.496643 
	C336.083466,504.080902 349.351227,510.566498 362.629211,517.029968 
	C366.152252,518.744873 367.763611,517.549744 368.090637,513.577148 
	C368.338898,510.560944 369.421051,507.613403 370.132172,504.635345 
	C370.606537,504.729401 371.080902,504.823456 371.555267,504.917511 
	C371.720001,505.681671 371.965759,506.438293 372.037567,507.211090 
	C373.546539,523.445435 371.223785,519.373291 385.981476,525.527100 
	C386.440979,525.718689 386.934509,525.998047 387.400818,525.977600 
	C391.595642,525.793884 396.021942,526.303345 399.907990,525.092957 
	C403.093323,524.100830 405.156616,524.341736 407.636475,526.182800 
	C416.498444,532.761902 426.356018,533.046387 435.529297,526.972839 
	C438.124298,525.254700 440.468048,523.157166 442.260864,521.754700 
	C445.900238,523.684814 448.885376,526.332397 452.162933,526.765137 
	C457.536804,527.474609 463.233337,527.468262 468.559906,526.490112 
	C485.978668,523.291565 502.730743,517.756226 518.712463,510.101166 
	C554.913208,492.761444 583.100098,466.214355 605.503113,433.329163 
	C608.221375,429.338959 608.634399,423.770264 610.077515,418.921722 
	C611.257080,414.958801 612.379517,410.978882 613.735779,406.284851 
	C616.138855,408.018890 617.271118,408.835907 619.115906,410.167114 
	C619.804504,405.822266 625.829407,402.788116 619.751770,398.284973 
	C619.148315,397.837860 619.387207,395.756012 619.744751,394.589142 
	C622.377136,385.999664 625.069702,377.427002 627.888733,368.897156 
	C629.390869,364.352142 630.370239,364.235474 633.897949,368.165527 
	C634.288208,366.319519 634.623840,364.731934 635.399658,363.078735 
	C637.911133,363.083191 639.982544,363.153320 642.053894,363.223419 
M622.027649,490.448120 
	C625.766724,491.962769 629.470276,494.651306 633.251648,494.765533 
	C643.430359,495.073059 652.610657,491.352539 659.942932,484.252258 
	C664.077209,480.248779 666.603333,474.929291 665.679504,468.898285 
	C664.505310,461.232361 658.559021,456.481995 649.692444,457.064697 
	C639.517395,457.733368 631.118958,454.469666 623.526855,448.113708 
	C621.236023,446.195953 618.746826,444.498077 616.252625,442.843994 
	C611.586060,439.749146 608.543152,440.221039 605.028870,444.590424 
	C602.944336,447.182098 600.991577,449.881866 599.030151,452.569916 
	C594.528931,458.738586 595.211975,460.966888 601.220459,465.642059 
	C606.664978,469.878418 611.887756,474.536102 616.504883,479.643860 
	C618.958252,482.357880 619.918701,486.421387 622.027649,490.448120 
M239.450348,446.950958 
	C241.216583,445.706329 242.913681,444.346558 244.761246,443.237396 
	C252.123184,438.817871 252.447556,437.822174 248.627396,430.244141 
	C248.177872,429.352448 247.745850,428.449829 247.251984,427.582916 
	C243.412918,420.843781 241.114685,420.091370 233.920044,422.981171 
	C225.053619,426.542389 216.162354,429.446411 206.300735,427.078705 
	C201.251328,425.866364 197.058319,427.998322 194.826004,432.880859 
	C193.731964,435.273712 192.936859,437.862244 192.407211,440.444427 
	C189.267395,455.751770 196.908234,470.186493 210.175217,474.231537 
	C219.563980,477.094116 228.256516,471.995026 230.134201,462.504730 
	C231.329254,456.464569 233.556839,451.034454 239.450348,446.950958 
M423.348999,606.610962 
	C433.092651,608.775696 440.289551,604.930542 445.355560,596.835266 
	C449.868286,589.624023 449.284515,582.638306 444.515869,575.402527 
	C442.362915,572.135803 441.499969,567.697632 441.077026,563.682983 
	C440.335083,556.640015 440.741211,549.470398 439.889954,542.447937 
	C439.620453,540.224915 437.300842,537.390869 435.187866,536.406067 
	C427.765564,532.946777 419.822693,538.081726 419.082642,546.424072 
	C418.862946,548.900757 418.956909,551.410767 418.998260,553.903992 
	C419.133057,562.031738 416.981995,569.239746 411.286621,575.349792 
	C407.439514,579.477051 405.875305,584.539795 407.607544,590.127747 
	C410.005035,597.861816 414.897034,603.415161 423.348999,606.610962 
z"/>
<path fill="#48687D" opacity="1.000000" stroke="none" 
	d="
M222.013397,290.038147 
	C224.662079,273.644928 230.072189,258.119110 237.011292,243.110962 
	C239.452728,237.830521 242.260132,232.700317 245.192047,227.671524 
	C247.600494,223.540573 247.455383,219.928986 244.478897,216.170425 
	C239.539658,209.933456 233.313080,206.184036 225.275711,206.058563 
	C208.543289,205.797348 198.174683,193.346054 197.094025,182.015503 
	C195.541199,165.734390 206.410843,151.271072 221.631287,147.921036 
	C237.352371,144.460785 250.702408,156.428192 252.926971,167.656448 
	C254.358688,174.882935 258.989502,180.106476 263.784119,185.249313 
	C267.078705,188.783218 270.429199,188.523941 273.790741,185.422653 
	C279.294739,180.344803 284.507874,174.917465 290.286591,170.177505 
	C316.262451,148.871185 346.421753,136.620758 379.077698,130.120499 
	C388.021729,128.340179 397.122040,127.301247 406.179993,126.154167 
	C411.238373,125.513588 413.631927,122.550392 413.863098,117.878815 
	C414.328674,108.470856 413.541351,99.188263 408.863281,90.730736 
	C402.949921,80.039803 403.127075,69.420280 410.376892,59.745544 
	C416.833588,51.129234 426.165833,47.374371 436.887848,49.360783 
	C449.299286,51.660172 457.277100,59.441448 460.851135,71.522987 
	C463.516785,80.533806 461.483154,88.772888 455.499115,95.823013 
	C448.813660,103.699539 448.478485,113.186310 448.141235,122.651833 
	C448.008850,126.366951 451.161438,127.520180 454.331329,127.909325 
	C504.464722,134.064011 548.870667,153.451324 587.320557,186.125046 
	C600.171021,197.045013 598.466003,194.831116 609.516602,186.674347 
	C616.302673,181.665314 622.001953,175.790146 625.958435,168.200806 
	C631.524780,157.523346 642.318115,152.342560 654.408508,154.139114 
	C665.030334,155.717438 674.304382,164.418121 676.780518,175.128159 
	C680.708435,192.117340 670.411804,207.381378 653.369324,211.352524 
	C645.391541,213.211456 637.661133,216.574982 630.202271,220.074509 
	C624.454712,222.771118 624.477417,224.656128 627.126953,230.493286 
	C630.840698,238.674866 634.309875,246.967438 637.552856,255.686737 
	C634.803528,256.402161 632.384888,256.643402 629.927856,256.538818 
	C628.217468,253.528992 626.394104,250.946259 624.910095,248.181381 
	C622.809631,244.268066 620.845337,240.271423 619.031738,236.216995 
	C616.822144,231.277542 615.872986,225.360443 612.543518,221.414795 
	C603.239685,210.389084 593.802551,199.221436 582.934143,189.826447 
	C563.719971,173.217117 542.272705,159.687943 518.749390,149.770447 
	C496.327301,140.317261 472.712860,135.235077 448.719666,132.302399 
	C438.446381,131.046707 427.755249,130.584473 417.667328,134.999313 
	C416.166168,135.656265 413.957062,134.684677 412.073853,134.481766 
	C406.716095,133.904465 401.324341,132.676147 396.008270,132.943268 
	C390.415741,133.224289 384.899414,134.960663 379.342560,136.023239 
	C340.647125,143.422546 306.846863,160.024857 279.517853,188.908859 
	C267.195496,201.932373 256.963135,216.408600 248.204437,232.035812 
	C244.307007,238.989563 240.572937,245.537231 246.693008,253.037918 
	C246.834763,253.211685 246.634186,253.664764 246.532120,254.470337 
	C245.119385,254.263443 243.660522,254.243317 242.333084,253.815445 
	C239.497070,252.901306 237.809708,253.909317 236.993896,256.623566 
	C233.650711,267.746613 230.328751,278.876038 226.595261,290.122131 
	C224.798843,290.173523 223.406113,290.105835 222.013397,290.038147 
M451.264313,64.354469 
	C450.310242,63.208069 449.460022,61.952190 448.385437,60.932838 
	C440.822418,53.758713 429.461517,51.874123 422.242798,56.534363 
	C412.762634,62.654472 407.994049,74.137207 412.410980,83.274193 
	C417.539062,93.882278 419.595917,104.868042 420.221741,116.449409 
	C420.380341,119.384453 422.094208,123.328262 424.391418,124.853043 
	C431.712921,129.712708 440.894989,125.165466 442.154572,116.593552 
	C443.308868,108.738182 443.592865,100.705254 449.323364,94.239685 
	C457.160065,85.397720 457.849396,75.317337 451.264313,64.354469 
M617.148193,216.506866 
	C622.684692,219.663666 626.520142,215.246567 630.910400,213.384445 
	C636.960632,210.818253 642.965271,206.025192 649.006226,205.998520 
	C661.504944,205.943314 669.502380,196.925690 671.655396,185.533859 
	C673.459351,175.989319 667.676270,165.241470 658.306030,161.112503 
	C649.385620,157.181747 641.244568,159.594025 634.796997,168.355637 
	C628.650696,176.707947 622.220581,184.694092 613.301819,190.367661 
	C610.523682,192.134933 607.881958,194.372757 605.830627,196.920685 
	C604.773621,198.233566 604.209290,201.391968 605.042542,202.525604 
	C608.544556,207.290298 612.657959,211.605576 617.148193,216.506866 
M209.611267,162.144852 
	C208.404755,163.942459 207.070374,165.668121 206.012009,167.549088 
	C197.836243,182.079575 208.455276,200.362137 222.238113,199.382172 
	C230.003006,198.830078 237.539490,202.336594 243.841660,207.404434 
	C251.379211,213.465668 254.169220,213.147522 259.830017,205.254608 
	C260.894226,203.770798 261.760345,202.143188 262.693542,200.567535 
	C264.669739,197.230804 264.180084,194.447067 261.350433,191.637924 
	C254.174316,184.513763 248.430710,176.566803 246.132446,166.338623 
	C244.694473,159.939087 239.863525,156.396347 233.491226,154.963470 
	C224.469833,152.934891 216.753372,155.394562 209.611267,162.144852 
z"/>
<path fill="#F9FAFB" opacity="1.000000" stroke="none" 
	d="
M110.652702,265.113831 
	C107.608864,264.146729 104.905525,263.395844 101.862144,262.550476 
	C101.862144,261.239441 101.862144,259.668488 101.862144,257.822693 
	C130.541046,257.822693 159.109940,257.822693 188.339294,257.822693 
	C188.339294,266.566132 188.339294,275.169434 188.339294,284.054382 
	C186.975708,284.054382 185.205185,284.054382 183.291733,284.054382 
	C182.920700,282.656219 182.494995,281.230804 182.166183,279.783386 
	C180.343521,271.760376 175.494690,266.561920 167.255005,265.897003 
	C157.652634,265.122101 147.977676,265.107880 138.335526,265.141388 
	C137.134888,265.145569 134.932022,267.435669 134.903351,268.705139 
	C134.637161,280.490845 134.745972,292.285004 134.745972,304.001312 
	C151.800919,307.258820 159.857178,302.795898 163.188522,288.263000 
	C164.647446,288.263000 166.178558,288.263000 167.872192,288.263000 
	C167.872192,301.490631 167.872192,314.595520 167.872192,327.874390 
	C166.227951,327.874390 164.785263,327.874390 163.379944,327.874390 
	C158.549728,312.916412 152.191406,309.441193 134.995193,312.317596 
	C134.995193,322.919464 134.747894,333.542969 135.100769,344.146515 
	C135.274155,349.355774 138.822571,352.757355 143.798752,353.858398 
	C154.005112,356.116760 164.274750,356.180756 174.416458,353.300995 
	C180.086838,351.690826 183.833603,347.793884 186.073196,342.495575 
	C187.486786,339.151489 188.519226,335.646271 189.814774,331.950439 
	C191.294647,331.950439 192.896011,331.950439 195.085480,331.950439 
	C194.353851,342.249268 193.629883,352.440155 192.893982,362.799042 
	C161.867172,362.799042 131.106155,362.799042 100.260529,362.799042 
	C100.260529,361.005188 100.260529,359.427277 100.260529,357.890198 
	C116.063400,355.791595 114.107399,351.796478 114.253189,340.429749 
	C114.528801,318.941010 114.429382,297.443420 114.107475,275.955139 
	C114.054199,272.398682 112.079796,268.871033 110.652702,265.113831 
z"/>
<path fill="#FCFCFD" opacity="1.000000" stroke="none" 
	d="
M629.966309,256.884613 
	C632.384888,256.643402 634.803528,256.402161 637.620728,256.048767 
	C643.582703,256.833984 649.393127,256.993958 654.665527,258.760101 
	C674.467896,265.393463 681.501404,284.491333 671.512939,302.981720 
	C665.782898,313.588989 657.504944,321.908112 647.938599,329.985413 
	C640.409180,335.643463 633.392578,340.910034 625.661682,346.712708 
	C633.218689,346.712708 639.646667,346.712708 646.074585,346.712708 
	C648.402954,346.773041 650.731873,346.898712 653.059692,346.882324 
	C662.823181,346.813568 666.573608,344.488403 669.916626,335.229523 
	C671.291443,331.421997 673.155396,330.232178 677.457642,331.497375 
	C675.708984,341.825958 673.946350,352.237061 672.113831,363.061096 
	C662.227173,363.061096 652.599670,363.061096 642.513062,363.142273 
	C639.982544,363.153320 637.911133,363.083191 634.937195,363.016846 
	C624.706177,363.072571 615.377747,363.124512 605.633850,363.107513 
	C603.546448,362.915649 601.874451,362.792755 600.221313,362.284149 
	C601.156250,359.258545 602.072388,356.618652 603.301941,353.888367 
	C605.467834,352.106873 607.320312,350.415802 609.468018,348.504150 
	C610.029846,347.880676 610.237305,347.419037 610.571350,347.083282 
	C621.109741,336.490845 631.660461,325.910614 642.503357,315.153564 
	C644.774597,311.953735 646.751831,308.928925 648.904236,305.585388 
	C653.383118,296.538208 655.175537,287.389954 652.950867,277.809937 
	C651.458862,271.384857 648.355042,266.073090 640.727783,264.569885 
	C638.576843,264.355896 636.739746,264.376526 634.543823,264.342957 
	C624.808105,266.593658 620.055908,272.257629 619.907410,281.305725 
	C619.763367,290.078674 623.005920,294.223083 632.009033,296.773438 
	C631.173767,301.710724 628.295166,304.889709 623.057739,304.729462 
	C618.748779,304.597534 614.488647,302.874664 610.053467,301.557922 
	C607.887939,299.183838 605.875854,297.108734 603.810669,294.651184 
	C603.094299,289.865570 602.431030,285.462402 601.915405,280.706085 
	C603.062866,277.583374 604.062805,274.813843 605.340942,271.857971 
	C611.353149,262.821228 620.244812,259.169708 629.966309,256.884613 
z"/>
<path fill="#FAFBFC" opacity="1.000000" stroke="none" 
	d="
M757.392395,356.997803 
	C762.286682,357.041901 760.969177,360.110229 760.848450,362.805969 
	C745.306519,362.805969 729.875916,362.805969 714.278198,362.805969 
	C714.278198,361.032410 714.278198,359.458862 714.278198,357.920288 
	C728.069275,355.851685 729.829041,349.577362 728.501160,334.518250 
	C714.306702,334.518250 700.059814,334.518250 685.803528,334.518250 
	C684.569458,329.630005 685.447083,325.897949 688.229126,322.063171 
	C702.594421,302.261841 716.916504,282.421356 730.770630,262.262604 
	C734.133972,257.368622 737.622009,255.144455 743.332703,256.057495 
	C744.781738,256.289185 746.299255,256.092224 748.250122,256.092224 
	C748.250122,279.312347 748.250122,302.240479 748.250122,325.074554 
	C758.573486,327.035736 762.854858,323.883179 764.823853,313.078613 
	C766.205872,313.078613 767.637085,313.078613 769.360962,313.078613 
	C769.360962,323.905762 769.360962,334.647400 769.360962,345.728455 
	C767.942871,345.831482 766.528320,345.934265 764.552734,346.077789 
	C765.063782,334.210266 757.039490,334.150818 748.829712,334.087677 
	C746.931152,346.871094 749.459595,353.799896 757.392395,356.997803 
M714.496887,325.930359 
	C719.246033,325.930359 723.995117,325.930359 728.702087,325.930359 
	C728.702087,310.991211 728.702087,296.678436 728.702087,281.209564 
	C717.891968,296.459930 707.735168,310.788727 697.002136,325.930359 
	C703.297363,325.930359 708.398865,325.930359 714.496887,325.930359 
z"/>
<path fill="#F9FAFB" opacity="1.000000" stroke="none" 
	d="
M221.556946,290.155731 
	C223.406113,290.105835 224.798843,290.173523 227.048676,290.246948 
	C233.182907,290.252716 238.460037,290.252716 243.831741,290.252716 
	C243.831741,292.481750 243.831741,294.086243 243.831741,295.643585 
	C237.313065,296.922882 235.846771,298.468323 238.107559,302.156830 
	C241.173126,307.158386 244.763458,311.838287 248.398697,317.042725 
	C250.905624,313.621246 252.958237,310.819824 255.301849,307.839203 
	C256.751465,306.084778 258.038177,304.586700 259.042786,302.918732 
	C261.320129,299.137756 260.530945,297.499603 255.591949,296.067810 
	C254.544174,294.370453 253.863007,292.730499 253.043335,290.757111 
	C255.768555,290.411499 257.384521,290.206543 259.403137,290.121887 
	C261.196533,290.181671 262.587250,290.121216 264.436035,290.174377 
	C271.503510,290.287994 278.112946,290.287994 284.816040,290.287994 
	C284.816040,292.494812 284.816040,294.105225 284.816040,294.397156 
	C280.104736,296.930786 275.526031,298.417816 272.274750,301.367798 
	C267.270782,305.908081 263.177582,311.452148 258.399353,316.751312 
	C256.485352,318.780945 254.870010,320.629608 253.011902,322.756073 
	C255.055573,325.272369 257.005341,327.673065 259.079498,330.384125 
	C263.583954,336.325134 268.007446,341.922729 272.331421,347.596130 
	C276.322327,352.832489 280.404419,357.852814 288.044128,357.362030 
	C288.044128,359.474335 288.044128,361.057404 288.044128,363.140137 
	C279.897461,363.140137 271.968719,363.140137 263.608887,363.075562 
	C261.436890,363.060455 259.696014,363.109955 257.496094,363.093506 
	C253.083344,363.027588 249.129578,363.027588 245.110794,363.027588 
	C245.110794,361.028809 245.110794,359.457550 245.110794,357.947571 
	C253.006775,356.133636 253.566986,354.803467 249.118118,348.217468 
	C246.356293,344.128967 243.389694,340.178833 240.110962,335.602631 
	C237.208755,339.272461 234.579926,342.596649 231.664017,346.098938 
	C230.596008,347.343689 229.766022,348.378235 229.042664,349.482635 
	C225.906158,354.271210 227.022079,356.386475 233.326813,357.152710 
	C236.881348,359.042603 236.569565,361.035187 234.047150,363.171661 
	C230.650818,363.131866 227.254471,363.092102 223.401962,363.135468 
	C215.847427,363.218628 208.749084,363.218628 201.397095,363.218628 
	C201.397095,361.094849 201.397095,359.541565 201.397095,357.520599 
	C208.547165,357.258698 214.812592,355.146790 219.352936,348.444763 
	C221.605850,345.608612 223.416962,343.225372 225.503738,340.732208 
	C225.867310,340.445129 225.955231,340.267914 226.342667,339.954254 
	C228.107635,337.955505 229.573090,336.093201 231.346405,334.082336 
	C232.793991,332.576538 233.933701,331.219299 235.202148,329.708740 
	C231.698425,325.461426 228.378326,321.436676 224.987747,317.106812 
	C222.977753,314.481323 221.038239,312.161011 219.098724,309.840698 
	C216.702728,306.692383 214.628510,303.210236 211.813568,300.496490 
	C209.358780,298.129974 206.068863,296.629761 202.538803,294.354095 
	C202.538803,293.923065 202.538803,292.360443 202.538803,290.273315 
	C208.924545,290.273315 215.012512,290.273315 221.556946,290.155731 
z"/>
<path fill="#F9FAFB" opacity="1.000000" stroke="none" 
	d="
M732.366089,396.380981 
	C737.370605,391.691833 743.073792,390.520477 749.276428,391.511292 
	C756.750671,392.705170 761.509766,396.562408 761.918518,404.105286 
	C762.625854,417.159271 762.114807,430.279297 762.114807,443.693848 
	C758.507141,443.693848 754.452515,443.693848 749.837036,443.693848 
	C749.837036,437.583740 749.846375,431.489624 749.833984,425.395538 
	C749.824463,420.738037 749.927673,416.074432 749.723083,411.424866 
	C749.517517,406.752747 747.999878,402.997498 742.483948,402.315704 
	C737.132324,401.654236 732.191650,404.133575 730.614075,409.207367 
	C729.645874,412.321320 729.306824,415.720734 729.230957,419.004608 
	C729.043274,427.132568 729.169434,435.267731 729.169434,443.704987 
	C724.858643,443.704987 720.792603,443.704987 716.423950,443.704987 
	C716.423950,426.654053 716.423950,409.630585 716.423950,392.347961 
	C720.530273,392.347961 724.427429,392.347961 728.593140,392.347961 
	C728.734741,394.851105 728.863525,397.128448 729.042419,400.290619 
	C730.360413,398.729156 731.238770,397.688568 732.366089,396.380981 
z"/>
<path fill="#FAFBFC" opacity="1.000000" stroke="none" 
	d="
M701.166260,407.004242 
	C701.166260,419.462402 701.166260,431.421143 701.166260,443.694092 
	C696.878052,443.694092 692.812134,443.694092 688.435059,443.694092 
	C688.435059,426.675751 688.435059,409.655548 688.435059,392.363159 
	C692.524963,392.363159 696.447998,392.363159 701.166260,392.363159 
	C701.166260,397.033051 701.166260,401.768951 701.166260,407.004242 
z"/>
<path fill="#F9FAFB" opacity="1.000000" stroke="none" 
	d="
M659.243164,437.691467 
	C659.086365,433.384674 660.673218,429.863373 664.496765,429.390930 
	C667.560364,429.012360 671.587219,429.914948 673.852173,431.828461 
	C675.416931,433.150421 675.849243,437.823456 674.709045,439.799927 
	C673.438049,442.003143 669.943237,443.647552 667.182373,444.096527 
	C663.086060,444.762726 660.357544,442.158081 659.243164,437.691467 
z"/>
<path fill="#49687D" opacity="1.000000" stroke="none" 
	d="
M219.059509,310.287415 
	C221.038239,312.161011 222.977753,314.481323 224.955200,317.615295 
	C225.071457,325.899994 225.149780,333.371063 225.228088,340.842102 
	C223.416962,343.225372 221.605850,345.608612 219.496033,348.144836 
	C219.138336,335.776581 219.079315,323.255371 219.059509,310.287415 
z"/>
<path fill="#F9FAFB" opacity="1.000000" stroke="none" 
	d="
M686.914062,378.084930 
	C688.333557,372.332703 691.100891,370.254700 696.100098,370.918365 
	C700.397095,371.488831 702.527405,374.221100 702.728943,378.343903 
	C702.922607,382.305786 699.710266,385.538513 695.601562,385.925018 
	C690.945129,386.363068 687.936340,383.793121 686.914062,378.084930 
z"/>
<path fill="#48687D" opacity="1.000000" stroke="none" 
	d="
M646.143555,346.329346 
	C639.646667,346.712708 633.218689,346.712708 625.661682,346.712708 
	C633.392578,340.910034 640.409180,335.643463 647.735168,330.253906 
	C647.433838,335.402618 646.823181,340.674316 646.143555,346.329346 
z"/>
<path fill="#1A405A" opacity="1.000000" stroke="none" 
	d="
M234.035721,363.567047 
	C236.569565,361.035187 236.881348,359.042603 233.298325,356.733337 
	C232.605682,352.764893 232.278381,349.342865 231.951080,345.920807 
	C234.579926,342.596649 237.208755,339.272461 240.110962,335.602631 
	C243.389694,340.178833 246.356293,344.128967 249.118118,348.217468 
	C253.566986,354.803467 253.006775,356.133636 245.110794,357.947571 
	C245.110794,359.457550 245.110794,361.028809 245.110794,363.027588 
	C249.129578,363.027588 253.083344,363.027588 257.590393,363.437683 
	C261.147278,370.132080 263.809937,376.610291 267.244171,382.649750 
	C271.192230,389.592896 273.824554,390.417084 281.215332,387.706909 
	C288.528656,385.025116 295.692200,381.934723 302.982788,379.429810 
	C302.488098,388.361969 301.604919,389.308685 291.657776,391.930634 
	C291.657776,393.577637 291.657776,395.255371 291.657776,397.290222 
	C298.677032,397.290222 305.308075,397.290222 311.813171,397.595947 
	C310.454681,398.663757 309.259430,399.495850 307.983093,400.175781 
	C302.854919,402.907501 297.425323,405.178314 292.619507,408.386902 
	C284.488525,413.815430 282.948090,419.994446 286.518555,429.138184 
	C293.934723,448.130402 308.367126,460.592163 325.326996,470.605499 
	C345.238922,482.361755 366.218628,491.502106 389.045410,496.006775 
	C394.176056,497.019287 398.267395,499.666504 400.824188,504.428345 
	C401.324585,505.360260 402.226440,506.076630 402.433685,506.312531 
	C406.620056,504.295197 410.449554,502.816895 413.838989,500.650177 
	C415.364563,499.674957 416.783295,497.393158 416.941071,495.589661 
	C419.097015,470.946136 421.325836,446.301514 422.876221,421.615692 
	C423.626465,409.669830 422.840820,397.633545 423.126617,385.647186 
	C423.182465,383.305786 424.327271,380.092285 426.080505,378.855194 
	C431.704224,374.887177 439.886505,378.866425 440.877380,385.755554 
	C441.538849,390.354492 442.193756,395.013580 442.167999,399.641968 
	C442.051453,420.568604 441.701080,441.494049 441.415131,462.419647 
	C441.277191,472.517548 440.554901,482.646301 441.139496,492.700470 
	C441.482513,498.599304 445.725220,500.535217 451.642456,499.306885 
	C457.336945,498.124786 463.057434,497.066772 468.771271,495.979279 
	C488.440369,492.235809 507.855865,487.758423 524.967102,476.602905 
	C528.806580,474.099854 532.692322,473.168030 537.259766,474.939056 
	C538.676819,475.488525 541.177734,474.752594 542.523438,473.734314 
	C552.188599,466.421112 559.754150,457.170929 566.275940,447.031433 
	C566.747375,446.298553 566.860474,445.335297 567.321533,443.924072 
	C562.230774,445.105652 559.812988,442.273315 557.593445,438.959015 
	C556.582703,437.449707 555.465393,435.921173 554.093872,434.758118 
	C540.778931,423.467072 527.649109,411.936981 513.969238,401.102875 
	C500.151123,390.159332 485.778107,379.915710 471.627380,369.393463 
	C469.038208,367.468231 466.828064,365.293488 468.876434,361.938995 
	C470.421661,359.408539 472.414032,357.089813 474.501465,354.965851 
	C477.836151,351.572723 481.410919,352.369965 483.568359,356.914001 
	C481.772156,357.231079 480.362885,357.465424 478.958679,357.698914 
	C478.958679,359.621948 478.958679,361.186279 478.958679,363.263367 
	C485.807983,363.263367 492.374878,363.263367 498.997742,363.594788 
	C500.175629,364.864349 501.220734,365.918274 502.432007,366.721741 
	C510.063080,371.783478 517.969543,376.465271 525.335632,381.883575 
	C539.409424,392.235840 553.201355,402.972473 567.071594,413.599915 
	C573.223511,418.313446 579.775391,418.009491 586.420532,415.152863 
	C592.081482,412.719360 596.875793,408.686340 596.766602,402.261993 
	C596.628906,394.160553 598.815430,386.904694 601.527344,379.514313 
	C603.467529,374.227234 604.572021,368.633423 606.049316,363.176483 
	C615.377747,363.124512 624.706177,363.072571 634.497070,363.082489 
	C634.623840,364.731934 634.288208,366.319519 633.897949,368.165527 
	C630.370239,364.235474 629.390869,364.352142 627.888733,368.897156 
	C625.069702,377.427002 622.377136,385.999664 619.744751,394.589142 
	C619.387207,395.756012 619.148315,397.837860 619.751770,398.284973 
	C625.829407,402.788116 619.804504,405.822266 619.115906,410.167114 
	C617.271118,408.835907 616.138855,408.018890 613.735779,406.284851 
	C612.379517,410.978882 611.257080,414.958801 610.077515,418.921722 
	C608.634399,423.770264 608.221375,429.338959 605.503113,433.329163 
	C583.100098,466.214355 554.913208,492.761444 518.712463,510.101166 
	C502.730743,517.756226 485.978668,523.291565 468.559906,526.490112 
	C463.233337,527.468262 457.536804,527.474609 452.162933,526.765137 
	C448.885376,526.332397 445.900238,523.684814 442.260864,521.754700 
	C440.468048,523.157166 438.124298,525.254700 435.529297,526.972839 
	C426.356018,533.046387 416.498444,532.761902 407.636475,526.182800 
	C405.156616,524.341736 403.093323,524.100830 399.907990,525.092957 
	C396.021942,526.303345 391.595642,525.793884 387.400818,525.977600 
	C386.934509,525.998047 386.440979,525.718689 385.981476,525.527100 
	C371.223785,519.373291 373.546539,523.445435 372.037567,507.211090 
	C371.965759,506.438293 371.720001,505.681671 371.555267,504.917511 
	C371.080902,504.823456 370.606537,504.729401 370.132172,504.635345 
	C369.421051,507.613403 368.338898,510.560944 368.090637,513.577148 
	C367.763611,517.549744 366.152252,518.744873 362.629211,517.029968 
	C349.351227,510.566498 336.083466,504.080902 322.865173,497.496643 
	C319.595490,495.867920 318.474457,493.216583 319.914886,489.571777 
	C320.516754,488.048859 320.513580,486.286774 320.785522,484.633453 
	C320.406616,484.403229 320.027679,484.173004 319.648773,483.942780 
	C318.127563,485.027679 316.731628,486.426361 315.045929,487.099213 
	C313.673859,487.646881 311.520081,487.927673 310.521088,487.206818 
	C309.652802,486.580292 309.471497,484.285553 309.780731,482.906036 
	C310.282623,480.667053 311.748260,478.635406 312.188538,476.394714 
	C312.438110,475.124390 311.455688,473.612030 311.028137,472.208679 
	C309.828735,472.853241 308.420258,473.285645 307.489502,474.202789 
	C306.582947,475.096039 306.272003,476.560699 305.510101,477.640900 
	C304.033020,479.735199 302.424500,481.868408 299.408295,480.109711 
	C296.633301,478.491669 295.280792,476.315491 296.946014,473.055145 
	C297.464539,472.039886 297.693817,470.876862 298.135681,469.361267 
	C298.215820,468.941071 298.217224,468.668793 298.217224,468.668793 
	C298.217224,468.668793 297.984375,468.979248 297.984375,468.979248 
	C288.832672,471.697083 283.372650,465.975616 277.913452,460.218475 
	C260.067719,441.398773 247.350388,419.343689 237.399750,395.594604 
	C236.298431,392.966095 236.614624,389.773834 236.005676,386.899780 
	C235.463943,384.342926 235.198074,381.328735 233.658875,379.470032 
	C230.936951,376.183197 230.170212,373.373688 232.449799,369.602997 
	C233.422714,367.993683 233.525894,365.858612 234.035721,363.567047 
M504.789062,382.704834 
	C504.567047,382.647644 504.345062,382.590485 504.123016,382.533295 
	C504.153076,382.632751 504.161407,382.802368 504.216919,382.819550 
	C504.474487,382.899292 504.745117,382.936768 505.105377,383.668579 
	C511.138611,390.999268 518.253357,396.891510 527.519775,401.112701 
	C524.752563,393.333923 515.252930,385.945648 504.789062,382.704834 
M461.559052,505.062500 
	C466.605652,503.742554 471.652252,502.422607 476.698822,501.102692 
	C465.210236,500.250732 454.237305,501.317047 444.886292,508.850952 
	C450.172974,507.648163 455.459686,506.445374 461.559052,505.062500 
z"/>
<path fill="#193F5A" opacity="1.000000" stroke="none" 
	d="
M621.790344,490.161926 
	C619.918701,486.421387 618.958252,482.357880 616.504883,479.643860 
	C611.887756,474.536102 606.664978,469.878418 601.220459,465.642059 
	C595.211975,460.966888 594.528931,458.738586 599.030151,452.569916 
	C600.991577,449.881866 602.944336,447.182098 605.028870,444.590424 
	C608.543152,440.221039 611.586060,439.749146 616.252625,442.843994 
	C618.746826,444.498077 621.236023,446.195953 623.526855,448.113708 
	C631.118958,454.469666 639.517395,457.733368 649.692444,457.064697 
	C658.559021,456.481995 664.505310,461.232361 665.679504,468.898285 
	C666.603333,474.929291 664.077209,480.248779 659.942932,484.252258 
	C652.610657,491.352539 643.430359,495.073059 633.251648,494.765533 
	C629.470276,494.651306 625.766724,491.962769 621.790344,490.161926 
z"/>
<path fill="#1A405A" opacity="1.000000" stroke="none" 
	d="
M239.169464,447.173950 
	C233.556839,451.034454 231.329254,456.464569 230.134201,462.504730 
	C228.256516,471.995026 219.563980,477.094116 210.175217,474.231537 
	C196.908234,470.186493 189.267395,455.751770 192.407211,440.444427 
	C192.936859,437.862244 193.731964,435.273712 194.826004,432.880859 
	C197.058319,427.998322 201.251328,425.866364 206.300735,427.078705 
	C216.162354,429.446411 225.053619,426.542389 233.920044,422.981171 
	C241.114685,420.091370 243.412918,420.843781 247.251984,427.582916 
	C247.745850,428.449829 248.177872,429.352448 248.627396,430.244141 
	C252.447556,437.822174 252.123184,438.817871 244.761246,443.237396 
	C242.913681,444.346558 241.216583,445.706329 239.169464,447.173950 
z"/>
<path fill="#1A405A" opacity="1.000000" stroke="none" 
	d="
M422.959290,606.476318 
	C414.897034,603.415161 410.005035,597.861816 407.607544,590.127747 
	C405.875305,584.539795 407.439514,579.477051 411.286621,575.349792 
	C416.981995,569.239746 419.133057,562.031738 418.998260,553.903992 
	C418.956909,551.410767 418.862946,548.900757 419.082642,546.424072 
	C419.822693,538.081726 427.765564,532.946777 435.187866,536.406067 
	C437.300842,537.390869 439.620453,540.224915 439.889954,542.447937 
	C440.741211,549.470398 440.335083,556.640015 441.077026,563.682983 
	C441.499969,567.697632 442.362915,572.135803 444.515869,575.402527 
	C449.284515,582.638306 449.868286,589.624023 445.355560,596.835266 
	C440.289551,604.930542 433.092651,608.775696 422.959290,606.476318 
z"/>
<path fill="#1A405B" opacity="1.000000" stroke="none" 
	d="
M255.010864,308.018402 
	C252.958237,310.819824 250.905624,313.621246 248.398697,317.042725 
	C244.763458,311.838287 241.173126,307.158386 238.107559,302.156830 
	C235.846771,298.468323 237.313065,296.922882 243.831741,295.643585 
	C243.831741,294.086243 243.831741,292.481750 243.831741,290.252716 
	C238.460037,290.252716 233.182907,290.252716 227.452362,290.127930 
	C230.328751,278.876038 233.650711,267.746613 236.993896,256.623566 
	C237.809708,253.909317 239.497070,252.901306 242.333084,253.815445 
	C243.660522,254.243317 245.119385,254.263443 246.532120,254.470337 
	C246.634186,253.664764 246.834763,253.211685 246.693008,253.037918 
	C240.572937,245.537231 244.307007,238.989563 248.204437,232.035812 
	C256.963135,216.408600 267.195496,201.932373 279.517853,188.908859 
	C306.846863,160.024857 340.647125,143.422546 379.342560,136.023239 
	C384.899414,134.960663 390.415741,133.224289 396.008270,132.943268 
	C401.324341,132.676147 406.716095,133.904465 412.073853,134.481766 
	C413.957062,134.684677 416.166168,135.656265 417.667328,134.999313 
	C427.755249,130.584473 438.446381,131.046707 448.719666,132.302399 
	C472.712860,135.235077 496.327301,140.317261 518.749390,149.770447 
	C542.272705,159.687943 563.719971,173.217117 582.934143,189.826447 
	C593.802551,199.221436 603.239685,210.389084 612.543518,221.414795 
	C615.872986,225.360443 616.822144,231.277542 619.031738,236.216995 
	C620.845337,240.271423 622.809631,244.268066 624.910095,248.181381 
	C626.394104,250.946259 628.217468,253.528992 629.927856,256.538818 
	C620.244812,259.169708 611.353149,262.821228 605.089111,271.582275 
	C603.444702,266.347626 601.299927,261.154602 601.535522,256.071899 
	C601.730957,251.856598 601.237549,248.535767 598.628296,245.555115 
	C596.020020,242.575653 593.198242,239.765701 590.279480,237.089249 
	C589.657349,236.518753 587.512695,236.407181 587.253784,236.822510 
	C583.485352,242.866684 576.592834,243.230362 571.020447,245.889862 
	C546.491272,257.596741 523.596069,272.039429 501.185974,287.304535 
	C500.284882,287.918304 499.693909,288.987427 498.583191,289.991516 
	C491.536469,291.510193 484.865021,292.881714 477.983643,294.296387 
	C478.093506,296.035614 478.184570,297.477448 477.907349,298.907928 
	C476.061371,296.150238 473.078491,293.135315 473.507751,290.729218 
	C473.985962,288.049103 477.568512,285.922882 479.799744,283.555542 
	C480.028534,284.235168 480.257324,284.914795 480.486115,285.594421 
	C482.412048,286.107605 484.953857,287.678101 486.168671,286.970520 
	C498.387848,279.852783 510.419159,272.409027 522.406006,264.901611 
	C523.612183,264.146149 524.178528,262.368958 525.041809,261.065948 
	C524.506897,260.579285 523.972046,260.092621 523.437195,259.605957 
	C513.493042,265.587463 503.548920,271.568939 493.604767,277.550446 
	C493.206512,276.969879 492.808289,276.389343 492.410065,275.808777 
	C495.022949,273.707458 497.516235,271.432983 500.267731,269.532318 
	C521.639954,254.768921 543.131348,240.176254 564.373596,225.229050 
	C566.809265,223.515182 569.352234,219.980682 569.421387,217.229431 
	C569.676147,207.096054 568.646973,199.781296 557.755920,195.412125 
	C553.607361,193.747864 549.227783,192.056152 545.813538,189.308289 
	C540.896606,185.350983 536.257874,181.798187 529.458435,182.790237 
	C528.319824,182.956360 526.954834,182.003113 525.777283,181.404221 
	C509.018707,172.881088 492.024963,164.778580 475.602783,155.648544 
	C461.554962,147.838562 442.584442,161.456207 442.093872,174.165985 
	C441.831116,180.974167 441.074158,187.772186 441.027374,194.578156 
	C440.883026,215.570633 440.992401,236.564774 440.944641,257.558136 
	C440.939392,259.871307 440.777130,262.230072 440.303314,264.486969 
	C439.211395,269.687836 437.906525,270.057892 433.948364,266.337616 
	C431.920105,264.431244 430.196289,262.901031 427.891876,266.059845 
	C427.123444,267.113098 425.646912,267.649780 424.494080,268.422577 
	C423.708923,267.024170 422.622131,265.706177 422.221771,264.205139 
	C421.804291,262.640015 422.011078,260.898468 422.009003,259.233948 
	C421.976532,233.242035 421.935394,207.250122 421.940247,181.258209 
	C421.941986,171.921799 420.215973,163.044846 414.974060,155.161133 
	C414.255737,154.080780 412.593842,153.260025 411.246002,153.025894 
	C402.751404,151.550217 395.457001,156.180435 387.638306,158.056946 
	C356.425873,165.548065 329.660461,181.968109 303.945190,200.425690 
	C302.146393,201.716812 299.861633,202.678604 297.682434,203.016098 
	C293.744049,203.626022 292.661255,205.478226 293.516174,209.233200 
	C294.991699,215.713913 298.597015,220.785583 303.574432,224.918381 
	C308.947876,229.379929 314.367523,233.807770 320.002106,237.928909 
	C340.683777,253.055405 361.450256,268.066223 382.214386,283.079651 
	C387.648285,287.008606 388.153107,289.007965 384.896790,294.678375 
	C383.570709,296.987640 382.372131,299.370789 381.138428,301.732269 
	C379.620880,304.636963 377.447876,306.416382 373.707428,305.800385 
	C367.438873,296.264191 358.516327,291.413300 347.934387,288.688293 
	C347.702881,288.072601 347.593628,287.705475 347.347504,287.522644 
	C328.420044,273.461304 309.658752,259.164124 290.409912,245.556763 
	C286.037659,242.465942 280.044464,241.499649 274.661346,240.066498 
	C271.082397,239.113663 269.207062,240.992401 270.216644,244.793884 
	C272.066406,251.758942 270.407623,258.148163 267.840546,264.659119 
	C264.561584,272.975586 261.917938,281.542572 259.000488,290.001587 
	C257.384521,290.206543 255.768555,290.411499 253.043335,290.757111 
	C253.863007,292.730499 254.544174,294.370453 255.656586,296.494995 
	C255.728836,300.659180 255.369843,304.338776 255.010864,308.018402 
M422.996674,185.561127 
	C424.024384,201.618408 424.951233,217.683456 426.189056,233.724533 
	C426.373749,236.118271 428.019409,238.399277 428.989227,240.732437 
	C429.468842,240.639893 429.948486,240.547348 430.428131,240.454803 
	C430.603088,239.070587 430.968872,237.680176 430.924316,236.303070 
	C430.295441,216.869858 429.614471,197.438339 428.926758,178.007095 
	C428.897614,177.183823 428.936249,176.172394 428.493408,175.591629 
	C427.768829,174.641357 426.674072,173.973358 425.735443,173.186295 
	C425.046082,174.012436 423.893066,174.767136 423.752777,175.677856 
	C423.300140,178.615936 423.220306,181.611465 422.996674,185.561127 
M317.062653,163.473831 
	C311.959351,166.428925 307.470093,170.007339 305.191406,176.119263 
	C316.554779,170.148361 327.918152,164.177444 339.281525,158.206528 
	C331.190704,156.979691 324.374329,159.758224 317.062653,163.473831 
z"/>
<path fill="#1A405A" opacity="1.000000" stroke="none" 
	d="
M451.469421,64.660492 
	C457.849396,75.317337 457.160065,85.397720 449.323364,94.239685 
	C443.592865,100.705254 443.308868,108.738182 442.154572,116.593552 
	C440.894989,125.165466 431.712921,129.712708 424.391418,124.853043 
	C422.094208,123.328262 420.380341,119.384453 420.221741,116.449409 
	C419.595917,104.868042 417.539062,93.882278 412.410980,83.274193 
	C407.994049,74.137207 412.762634,62.654472 422.242798,56.534363 
	C429.461517,51.874123 440.822418,53.758713 448.385437,60.932838 
	C449.460022,61.952190 450.310242,63.208069 451.469421,64.660492 
z"/>
<path fill="#1A405B" opacity="1.000000" stroke="none" 
	d="
M616.847900,216.296127 
	C612.657959,211.605576 608.544556,207.290298 605.042542,202.525604 
	C604.209290,201.391968 604.773621,198.233566 605.830627,196.920685 
	C607.881958,194.372757 610.523682,192.134933 613.301819,190.367661 
	C622.220581,184.694092 628.650696,176.707947 634.796997,168.355637 
	C641.244568,159.594025 649.385620,157.181747 658.306030,161.112503 
	C667.676270,165.241470 673.459351,175.989319 671.655396,185.533859 
	C669.502380,196.925690 661.504944,205.943314 649.006226,205.998520 
	C642.965271,206.025192 636.960632,210.818253 630.910400,213.384445 
	C626.520142,215.246567 622.684692,219.663666 616.847900,216.296127 
M643.886047,175.332336 
	C641.661926,177.306442 639.204407,179.078659 637.275391,181.308121 
	C635.100098,183.822189 636.125366,185.548233 639.325439,186.033920 
	C643.610107,186.684235 651.815796,181.570190 652.632568,177.394012 
	C652.897095,176.041550 652.267944,174.030930 651.301331,173.080017 
	C650.579895,172.370361 648.592712,172.612289 647.292542,172.931885 
	C646.248230,173.188568 645.388733,174.197479 643.886047,175.332336 
z"/>
<path fill="#1A405B" opacity="1.000000" stroke="none" 
	d="
M209.846909,161.872223 
	C216.753372,155.394562 224.469833,152.934891 233.491226,154.963470 
	C239.863525,156.396347 244.694473,159.939087 246.132446,166.338623 
	C248.430710,176.566803 254.174316,184.513763 261.350433,191.637924 
	C264.180084,194.447067 264.669739,197.230804 262.693542,200.567535 
	C261.760345,202.143188 260.894226,203.770798 259.830017,205.254608 
	C254.169220,213.147522 251.379211,213.465668 243.841660,207.404434 
	C237.539490,202.336594 230.003006,198.830078 222.238113,199.382172 
	C208.455276,200.362137 197.836243,182.079575 206.012009,167.549088 
	C207.070374,165.668121 208.404755,163.942459 209.846909,161.872223 
M223.403000,174.981705 
	C218.439087,180.830627 218.726059,184.840103 225.249695,189.676270 
	C226.344803,183.766235 227.354492,178.317215 228.364182,172.868179 
	C227.888626,172.674332 227.413071,172.480499 226.937515,172.286652 
	C225.933716,173.010605 224.929916,173.734558 223.403000,174.981705 
z"/>
<path fill="#1A405B" opacity="1.000000" stroke="none" 
	d="
M602.988464,353.978729 
	C602.072388,356.618652 601.156250,359.258545 600.198608,362.723145 
	C597.528564,378.472687 591.783569,392.283020 584.562561,405.457855 
	C581.351685,411.316101 576.489624,412.283356 570.496277,409.080292 
	C567.576050,407.519623 564.799133,405.612793 562.184753,403.571442 
	C552.225342,395.794983 542.457642,387.770294 532.424744,380.091309 
	C524.780396,374.240509 516.843445,368.772064 509.498901,363.076111 
	C514.593628,363.018707 519.226135,363.018707 524.007263,363.018707 
	C524.007263,361.070709 524.007263,359.503448 524.007263,357.779999 
	C522.803162,357.619019 521.836426,357.454315 520.862793,357.365112 
	C511.988922,356.552338 510.174011,354.757111 510.009155,345.996399 
	C509.902893,340.349152 509.446228,334.590027 510.333435,329.071869 
	C511.504364,321.789185 513.271484,314.480927 515.857483,307.586914 
	C517.802734,302.401093 520.768433,302.136749 525.272583,305.154724 
	C526.100708,305.709564 526.897705,306.311279 527.730469,306.858795 
	C531.121521,309.088348 534.625122,309.141571 538.003967,306.999908 
	C541.650574,304.688538 542.531860,301.015564 542.174866,296.999176 
	C541.811584,292.911682 538.871643,290.960083 535.405273,289.901215 
	C528.434937,287.772064 522.188293,289.717407 516.899109,294.341400 
	C513.653015,297.179321 510.965027,300.655701 507.522064,304.392853 
	C506.858917,298.900146 506.267090,293.998199 506.064240,289.118652 
	C507.942017,288.446625 509.525177,287.902008 510.904694,287.033844 
	C521.471619,280.383484 531.845032,273.410187 542.584412,267.053894 
	C552.173889,261.378143 562.004089,256.057648 572.002686,251.138626 
	C582.530945,245.959045 588.952942,248.432785 593.899414,258.870728 
	C595.174377,261.561157 596.035095,264.452179 597.024170,267.272797 
	C598.632324,271.858826 600.189270,276.462830 601.767822,281.059235 
	C602.431030,285.462402 603.094299,289.865570 603.564148,294.966064 
	C603.317810,297.964874 603.120056,300.273804 603.236816,302.566650 
	C603.758057,312.800018 604.749573,323.026367 604.814819,333.260071 
	C604.858826,340.162109 603.641541,347.072235 602.988464,353.978729 
M556.097961,314.501709 
	C556.098328,324.993622 556.055054,335.485748 556.112488,345.977356 
	C556.161926,355.012878 559.462524,360.218750 566.635193,362.855408 
	C575.050110,365.948730 586.972046,364.107910 591.537537,358.895355 
	C593.740479,356.380188 595.210510,353.708344 591.211060,351.230133 
	C588.481262,354.631653 585.105835,356.485138 580.720886,355.051788 
	C576.437744,353.651733 575.728027,349.752899 575.685059,346.133087 
	C575.495911,330.213562 575.603455,314.290466 575.603455,297.829773 
	C580.734436,297.829773 585.798157,297.829773 590.802734,297.829773 
	C590.802734,295.153198 590.802734,293.017822 590.802734,290.253754 
	C585.584778,290.253754 580.528748,290.253754 574.936890,290.253754 
	C574.936890,284.423645 574.936890,279.206390 574.936890,274.356232 
	C569.951294,272.781036 567.933411,275.251862 565.127930,278.419403 
	C561.076172,282.994049 555.863159,286.865204 550.479126,289.823425 
	C546.736816,291.879639 545.096802,293.587189 546.697632,298.096191 
	C549.691284,298.096191 552.772034,298.096191 556.097961,298.096191 
	C556.097961,303.554962 556.097961,308.529022 556.097961,314.501709 
z"/>
<path fill="#1B415C" opacity="1.000000" stroke="none" 
	d="
M642.209290,315.328552 
	C631.660461,325.910614 621.109741,336.490845 610.571350,347.083282 
	C610.237305,347.419037 610.029846,347.880676 609.467651,348.038452 
	C611.108154,334.016113 611.115295,320.245209 609.253845,306.450684 
	C609.056580,304.988922 609.864990,303.391449 610.206848,301.856934 
	C614.488647,302.874664 618.748779,304.597534 623.057739,304.729462 
	C628.295166,304.889709 631.173767,301.710724 632.009033,296.773438 
	C623.005920,294.223083 619.763367,290.078674 619.907410,281.305725 
	C620.055908,272.257629 624.808105,266.593658 634.522522,264.737305 
	C637.309814,281.900116 639.759583,298.614319 642.209290,315.328552 
z"/>
<path fill="#48687D" opacity="1.000000" stroke="none" 
	d="
M509.036682,363.133545 
	C516.843445,368.772064 524.780396,374.240509 532.424744,380.091309 
	C542.457642,387.770294 552.225342,395.794983 562.184753,403.571442 
	C564.799133,405.612793 567.576050,407.519623 570.496277,409.080292 
	C576.489624,412.283356 581.351685,411.316101 584.562561,405.457855 
	C591.783569,392.283020 597.528564,378.472687 600.179810,363.108826 
	C601.874451,362.792755 603.546448,362.915649 605.633850,363.107513 
	C604.572021,368.633423 603.467529,374.227234 601.527344,379.514313 
	C598.815430,386.904694 596.628906,394.160553 596.766602,402.261993 
	C596.875793,408.686340 592.081482,412.719360 586.420532,415.152863 
	C579.775391,418.009491 573.223511,418.313446 567.071594,413.599915 
	C553.201355,402.972473 539.409424,392.235840 525.335632,381.883575 
	C517.969543,376.465271 510.063080,371.783478 502.432007,366.721741 
	C501.220734,365.918274 500.175629,364.864349 499.446228,363.489319 
	C502.904724,363.079468 505.970703,363.106506 509.036682,363.133545 
z"/>
<path fill="#49687D" opacity="1.000000" stroke="none" 
	d="
M601.915405,280.706085 
	C600.189270,276.462830 598.632324,271.858826 597.024170,267.272797 
	C596.035095,264.452179 595.174377,261.561157 593.899414,258.870728 
	C588.952942,248.432785 582.530945,245.959045 572.002686,251.138626 
	C562.004089,256.057648 552.173889,261.378143 542.584412,267.053894 
	C531.845032,273.410187 521.471619,280.383484 510.904694,287.033844 
	C509.525177,287.902008 507.942017,288.446625 505.694031,289.175964 
	C502.942719,289.421967 500.950592,289.633179 498.958466,289.844391 
	C499.693909,288.987427 500.284882,287.918304 501.185974,287.304535 
	C523.596069,272.039429 546.491272,257.596741 571.020447,245.889862 
	C576.592834,243.230362 583.485352,242.866684 587.253784,236.822510 
	C587.512695,236.407181 589.657349,236.518753 590.279480,237.089249 
	C593.198242,239.765701 596.020020,242.575653 598.628296,245.555115 
	C601.237549,248.535767 601.730957,251.856598 601.535522,256.071899 
	C601.299927,261.154602 603.444702,266.347626 604.810913,271.768585 
	C604.062805,274.813843 603.062866,277.583374 601.915405,280.706085 
z"/>
<path fill="#49687D" opacity="1.000000" stroke="none" 
	d="
M610.053467,301.557922 
	C609.864990,303.391449 609.056580,304.988922 609.253845,306.450684 
	C611.115295,320.245209 611.108154,334.016113 609.172302,348.258972 
	C607.320312,350.415802 605.467834,352.106873 603.301941,353.888367 
	C603.641541,347.072235 604.858826,340.162109 604.814819,333.260071 
	C604.749573,323.026367 603.758057,312.800018 603.236816,302.566650 
	C603.120056,300.273804 603.317810,297.964874 603.617310,295.348480 
	C605.875854,297.108734 607.887939,299.183838 610.053467,301.557922 
z"/>
<path fill="#49687D" opacity="1.000000" stroke="none" 
	d="
M642.503357,315.153564 
	C639.759583,298.614319 637.309814,281.900116 634.881348,264.791504 
	C636.739746,264.376526 638.576843,264.355896 640.785034,264.964722 
	C642.146240,269.774902 643.327637,273.921234 644.087158,278.143494 
	C645.748047,287.376587 647.194763,296.648193 648.729004,305.904083 
	C646.751831,308.928925 644.774597,311.953735 642.503357,315.153564 
z"/>
<path fill="#1D435D" opacity="1.000000" stroke="none" 
	d="
M648.904236,305.585388 
	C647.194763,296.648193 645.748047,287.376587 644.087158,278.143494 
	C643.327637,273.921234 642.146240,269.774902 641.098877,265.199341 
	C648.355042,266.073090 651.458862,271.384857 652.950867,277.809937 
	C655.175537,287.389954 653.383118,296.538208 648.904236,305.585388 
z"/>
<path fill="#1B415C" opacity="1.000000" stroke="none" 
	d="
M713.998657,325.930359 
	C708.398865,325.930359 703.297363,325.930359 697.002136,325.930359 
	C707.735168,310.788727 717.891968,296.459930 728.702087,281.209564 
	C728.702087,296.678436 728.702087,310.991211 728.702087,325.930359 
	C723.995117,325.930359 719.246033,325.930359 713.998657,325.930359 
z"/>
<path fill="#1A405B" opacity="1.000000" stroke="none" 
	d="
M264.039978,363.140137 
	C271.968719,363.140137 279.897461,363.140137 288.044128,363.140137 
	C288.044128,361.057404 288.044128,359.474335 288.044128,357.362030 
	C280.404419,357.852814 276.322327,352.832489 272.331421,347.596130 
	C268.007446,341.922729 263.583954,336.325134 259.082855,329.911804 
	C258.873871,324.942871 258.785919,320.756592 258.697998,316.570312 
	C263.177582,311.452148 267.270782,305.908081 272.274750,301.367798 
	C275.526031,298.417816 280.104736,296.930786 284.816040,294.397156 
	C284.816040,294.105225 284.816040,292.494812 284.816040,290.287994 
	C278.112946,290.287994 271.503510,290.287994 264.464752,289.782959 
	C268.663544,277.945679 272.949066,266.456146 278.052063,255.341965 
	C280.975616,248.974625 285.053070,248.425095 291.028351,252.436234 
	C295.155518,255.206696 299.175659,258.145233 303.149719,261.133514 
	C315.456390,270.387421 327.718109,279.701050 339.619659,289.116821 
	C331.419037,289.976166 324.838165,293.433502 318.558319,299.815460 
	C318.558319,295.721619 318.558319,292.959564 318.558319,289.688324 
	C313.672882,290.334167 309.262604,290.894012 304.859528,291.505737 
	C300.306854,292.138184 295.761169,292.820984 290.970184,293.516937 
	C291.103546,295.520264 291.208588,297.098694 291.308777,298.603455 
	C300.500305,299.564087 302.560089,300.784424 302.655792,307.707153 
	C302.960999,329.787201 302.808136,351.873596 302.455963,373.949158 
	C295.355804,376.641632 288.638000,379.357880 281.905457,382.037079 
	C278.328735,383.460419 274.345795,384.283661 272.150085,380.429382 
	C269.009033,374.915619 266.702728,368.926361 264.039978,363.140137 
z"/>
<path fill="#49687D" opacity="1.000000" stroke="none" 
	d="
M339.997284,288.991516 
	C327.718109,279.701050 315.456390,270.387421 303.149719,261.133514 
	C299.175659,258.145233 295.155518,255.206696 291.028351,252.436234 
	C285.053070,248.425095 280.975616,248.974625 278.052063,255.341965 
	C272.949066,266.456146 268.663544,277.945679 264.006714,289.669312 
	C262.587250,290.121216 261.196533,290.181671 259.403137,290.121857 
	C261.917938,281.542572 264.561584,272.975586 267.840546,264.659119 
	C270.407623,258.148163 272.066406,251.758942 270.216644,244.793884 
	C269.207062,240.992401 271.082397,239.113663 274.661346,240.066498 
	C280.044464,241.499649 286.037659,242.465942 290.409912,245.556763 
	C309.658752,259.164124 328.420044,273.461304 347.347504,287.522644 
	C347.593628,287.705475 347.702881,288.072601 347.503967,288.810516 
	C344.753693,289.175415 342.375488,289.083466 339.997284,288.991516 
z"/>
<path fill="#48687D" opacity="1.000000" stroke="none" 
	d="
M263.608887,363.075562 
	C266.702728,368.926361 269.009033,374.915619 272.150085,380.429382 
	C274.345795,384.283661 278.328735,383.460419 281.905457,382.037079 
	C288.638000,379.357880 295.355804,376.641632 302.584839,374.356415 
	C303.033783,376.189209 302.977631,377.606415 302.921448,379.023590 
	C295.692200,381.934723 288.528656,385.025116 281.215332,387.706909 
	C273.824554,390.417084 271.192230,389.592896 267.244171,382.649750 
	C263.809937,376.610291 261.147278,370.132080 258.049377,363.503601 
	C259.696014,363.109955 261.436890,363.060455 263.608887,363.075562 
z"/>
<path fill="#1D435D" opacity="1.000000" stroke="none" 
	d="
M225.503754,340.732208 
	C225.149780,333.371063 225.071457,325.899994 225.025665,317.920471 
	C228.378326,321.436676 231.698425,325.461426 235.202148,329.708740 
	C233.933701,331.219299 232.793991,332.576538 231.299789,333.735596 
	C229.788116,330.626801 228.075500,330.647949 226.997955,333.300812 
	C226.163773,335.354584 226.324631,337.812439 226.043152,340.090668 
	C225.955231,340.267914 225.867310,340.445129 225.503754,340.732208 
z"/>
<path fill="#4D6C80" opacity="1.000000" stroke="none" 
	d="
M258.399353,316.751312 
	C258.785919,320.756592 258.873871,324.942871 258.958466,329.601440 
	C257.005341,327.673065 255.055573,325.272369 253.011902,322.756073 
	C254.870010,320.629608 256.485352,318.780945 258.399353,316.751312 
z"/>
<path fill="#4D6C80" opacity="1.000000" stroke="none" 
	d="
M231.664001,346.098938 
	C232.278381,349.342865 232.605682,352.764893 232.961487,356.606323 
	C227.022079,356.386475 225.906158,354.271210 229.042664,349.482635 
	C229.766022,348.378235 230.596008,347.343689 231.664001,346.098938 
z"/>
<path fill="#4D6C80" opacity="1.000000" stroke="none" 
	d="
M255.301849,307.839203 
	C255.369843,304.338776 255.728836,300.659180 256.023193,296.552368 
	C260.530945,297.499603 261.320129,299.137756 259.042786,302.918732 
	C258.038177,304.586700 256.751465,306.084778 255.301849,307.839203 
z"/>
<path fill="#4D6C80" opacity="1.000000" stroke="none" 
	d="
M226.342651,339.954254 
	C226.324631,337.812439 226.163773,335.354584 226.997955,333.300812 
	C228.075500,330.647949 229.788116,330.626801 230.991913,333.884155 
	C229.573090,336.093201 228.107635,337.955505 226.342651,339.954254 
z"/>
<path fill="#49687D" opacity="1.000000" stroke="none" 
	d="
M373.964081,306.012573 
	C377.447876,306.416382 379.620880,304.636963 381.138428,301.732269 
	C382.372131,299.370789 383.570709,296.987640 384.896790,294.678375 
	C388.153107,289.007965 387.648285,287.008606 382.214386,283.079651 
	C361.450256,268.066223 340.683777,253.055405 320.002106,237.928909 
	C314.367523,233.807770 308.947876,229.379929 303.574432,224.918381 
	C298.597015,220.785583 294.991699,215.713913 293.516174,209.233200 
	C292.661255,205.478226 293.744049,203.626022 297.682434,203.016098 
	C299.861633,202.678604 302.146393,201.716812 303.945190,200.425690 
	C329.660461,181.968109 356.425873,165.548065 387.638306,158.056946 
	C395.457001,156.180435 402.751404,151.550217 411.246002,153.025894 
	C412.593842,153.260025 414.255737,154.080780 414.974060,155.161133 
	C420.215973,163.044846 421.941986,171.921799 421.940247,181.258209 
	C421.935394,207.250122 421.976532,233.242035 422.009003,259.233948 
	C422.011078,260.898468 421.804291,262.640015 422.221771,264.205139 
	C422.622131,265.706177 423.708923,267.024170 424.494080,268.422577 
	C425.646912,267.649780 427.123444,267.113098 427.891876,266.059845 
	C430.196289,262.901031 431.920105,264.431244 433.948364,266.337616 
	C437.906525,270.057892 439.211395,269.687836 440.303314,264.486969 
	C440.777130,262.230072 440.939392,259.871307 440.944641,257.558136 
	C440.992401,236.564774 440.883026,215.570633 441.027374,194.578156 
	C441.074158,187.772186 441.831116,180.974167 442.093872,174.165985 
	C442.584442,161.456207 461.554962,147.838562 475.602783,155.648544 
	C492.024963,164.778580 509.018707,172.881088 525.777283,181.404221 
	C526.954834,182.003113 528.319824,182.956360 529.458435,182.790237 
	C536.257874,181.798187 540.896606,185.350983 545.813538,189.308289 
	C549.227783,192.056152 553.607361,193.747864 557.755920,195.412125 
	C568.646973,199.781296 569.676147,207.096054 569.421387,217.229431 
	C569.352234,219.980682 566.809265,223.515182 564.373596,225.229050 
	C543.131348,240.176254 521.639954,254.768921 500.267731,269.532318 
	C497.516235,271.432983 495.022949,273.707458 492.410065,275.808777 
	C492.808289,276.389343 493.206512,276.969879 493.604767,277.550446 
	C503.548920,271.568939 513.493042,265.587463 523.437195,259.605957 
	C523.972046,260.092621 524.506897,260.579285 525.041809,261.065948 
	C524.178528,262.368958 523.612183,264.146149 522.406006,264.901611 
	C510.419159,272.409027 498.387848,279.852783 486.168671,286.970520 
	C484.953857,287.678101 482.412048,286.107605 480.486115,285.594421 
	C480.257324,284.914795 480.028534,284.235168 479.799744,283.555542 
	C477.568512,285.922882 473.985962,288.049103 473.507751,290.729218 
	C473.078491,293.135315 476.061371,296.150238 478.106262,298.888184 
	C478.673492,298.879822 479.022827,299.074280 479.043274,299.339111 
	C479.694946,299.453522 480.326202,299.303070 481.316467,299.082367 
	C483.769623,300.348602 485.863770,301.685120 487.674377,303.201355 
	C485.738678,306.770782 483.052704,310.041351 482.645569,313.574493 
	C481.747467,321.368561 482.480774,329.346924 481.641022,337.152496 
	C480.835205,344.642426 482.631134,348.462952 490.014160,351.356140 
	C488.014038,353.421661 485.984650,355.126465 483.955261,356.831268 
	C481.410919,352.369965 477.836151,351.572723 474.501465,354.965851 
	C472.414032,357.089813 470.421661,359.408539 468.876434,361.938995 
	C466.828064,365.293488 469.038208,367.468231 471.627380,369.393463 
	C485.778107,379.915710 500.151123,390.159332 513.969238,401.102875 
	C527.649109,411.936981 540.778931,423.467072 554.093872,434.758118 
	C555.465393,435.921173 556.582703,437.449707 557.593445,438.959015 
	C559.812988,442.273315 562.230774,445.105652 567.321533,443.924072 
	C566.860474,445.335297 566.747375,446.298553 566.275940,447.031433 
	C559.754150,457.170929 552.188599,466.421112 542.523438,473.734314 
	C541.177734,474.752594 538.676819,475.488525 537.259766,474.939056 
	C532.692322,473.168030 528.806580,474.099854 524.967102,476.602905 
	C507.855865,487.758423 488.440369,492.235809 468.771271,495.979279 
	C463.057434,497.066772 457.336945,498.124786 451.642456,499.306885 
	C445.725220,500.535217 441.482513,498.599304 441.139496,492.700470 
	C440.554901,482.646301 441.277191,472.517548 441.415131,462.419647 
	C441.701080,441.494049 442.051453,420.568604 442.167999,399.641968 
	C442.193756,395.013580 441.538849,390.354492 440.877380,385.755554 
	C439.886505,378.866425 431.704224,374.887177 426.080505,378.855194 
	C424.327271,380.092285 423.182465,383.305786 423.126617,385.647186 
	C422.840820,397.633545 423.626465,409.669830 422.876221,421.615692 
	C421.325836,446.301514 419.097015,470.946136 416.941071,495.589661 
	C416.783295,497.393158 415.364563,499.674957 413.838989,500.650177 
	C410.449554,502.816895 406.620056,504.295197 402.433685,506.312531 
	C402.226440,506.076630 401.324585,505.360260 400.824188,504.428345 
	C398.267395,499.666504 394.176056,497.019287 389.045410,496.006775 
	C366.218628,491.502106 345.238922,482.361755 325.326996,470.605499 
	C308.367126,460.592163 293.934723,448.130402 286.518555,429.138184 
	C282.948090,419.994446 284.488525,413.815430 292.619507,408.386902 
	C297.425323,405.178314 302.854919,402.907501 307.983093,400.175781 
	C309.259430,399.495850 310.454681,398.663757 312.269897,397.491028 
	C316.598999,397.223114 320.345428,397.365814 323.970093,397.804932 
	C315.669464,402.176544 307.440369,406.154724 299.325775,410.354095 
	C291.096558,414.612854 288.858459,420.608612 292.634094,429.024109 
	C296.845459,438.410828 302.916962,446.577118 311.013306,452.959595 
	C336.769928,473.264008 366.049683,485.646698 398.266571,491.372467 
	C408.177917,493.133972 412.092590,490.539734 412.984436,480.635803 
	C413.892700,470.549255 414.808472,460.448578 415.204926,450.333862 
	C415.990753,430.284851 417.242920,410.202393 416.766937,390.170288 
	C416.295197,370.318085 394.152985,359.000458 377.018372,368.877228 
	C371.395691,372.118195 365.676941,375.194611 360.091003,378.496643 
	C352.807465,382.802185 345.612396,387.257294 338.002167,391.594604 
	C335.384918,391.206360 333.144775,390.871582 331.042725,390.192688 
	C331.984009,389.270813 332.743683,388.617554 333.596802,388.126556 
	C348.722809,379.421234 363.881836,370.773041 378.983795,362.026245 
	C384.506622,358.827545 385.123383,356.200073 382.024200,350.602020 
	C380.339386,347.558777 378.621582,344.533813 376.859375,341.124878 
	C380.475739,328.793030 379.325256,317.230927 373.964081,306.012573 
M311.444794,225.052017 
	C322.355743,233.513992 333.123962,242.168625 344.216003,250.386139 
	C356.377563,259.396088 368.441345,268.639801 381.267731,276.625122 
	C397.556244,286.765869 416.094818,275.849609 415.942871,256.801056 
	C415.726440,229.668091 415.356689,202.536331 415.051514,175.404083 
	C415.045898,174.904404 415.039246,174.404312 415.014496,173.905334 
	C414.625092,166.063751 410.425781,161.359039 402.646545,162.200439 
	C393.286865,163.212784 383.737854,164.658096 374.878204,167.690475 
	C350.780823,175.938171 328.482635,187.555450 309.283203,204.810028 
	C301.398804,211.895782 298.408691,213.507339 309.652100,223.761292 
	C310.017639,224.094650 310.471710,224.330948 311.444794,225.052017 
M465.718231,283.014465 
	C468.079315,282.371185 470.714661,282.191620 472.745819,280.990479 
	C477.318054,278.286591 481.571533,275.047668 485.988892,272.077301 
	C509.190063,256.476349 532.432983,240.937119 555.594299,225.277298 
	C564.480774,219.269058 564.658447,214.209778 556.543823,207.183121 
	C555.917358,206.640625 555.242554,206.140564 554.539673,205.701736 
	C544.388000,199.363968 534.328979,192.869705 524.046997,186.750397 
	C505.919067,175.961609 486.788818,167.593079 465.962677,163.445770 
	C455.592621,161.380692 450.733673,164.407928 448.994781,174.737686 
	C448.086884,180.131165 447.160248,185.602127 447.111938,191.045807 
	C446.896271,215.351212 446.853088,239.661102 447.141388,263.964691 
	C447.181366,267.334320 448.510529,271.653137 450.837891,273.817291 
	C454.873047,277.569550 460.155396,279.980560 465.718231,283.014465 
M449.022583,439.499512 
	C448.708984,446.807953 448.409454,454.117004 448.078033,461.424622 
	C447.716522,469.394867 447.117920,477.361237 447.019684,485.334167 
	C446.953094,490.741730 448.643463,492.546753 453.967804,491.975281 
	C462.704987,491.037567 471.450714,489.754944 480.033936,487.887451 
	C505.247162,482.401672 527.914307,471.695404 546.770325,453.742706 
	C554.136719,446.729218 554.422913,443.007233 546.831116,436.407257 
	C532.148743,423.642975 517.178589,411.187836 501.944000,399.087738 
	C490.744354,390.192383 479.053314,381.896149 467.346466,373.666962 
	C461.223114,369.362640 455.588043,373.254883 450.087921,375.935638 
	C445.968597,377.943420 446.909271,381.755920 447.029968,385.165833 
	C447.659119,402.945068 448.354034,420.722015 449.022583,439.499512 
M450.899628,281.526764 
	C444.046478,279.701813 437.249176,276.587250 430.329987,276.287628 
	C407.217773,275.286774 387.492523,292.238312 383.107361,316.018829 
	C380.135162,332.136871 382.238312,347.362732 395.338684,358.461365 
	C409.304749,370.293457 426.283142,373.947083 443.997314,370.283600 
	C466.235260,365.684540 480.903656,340.462921 476.407074,315.145660 
	C473.731171,300.079529 464.507965,289.477966 450.899628,281.526764 
z"/>
<path fill="#FBFCFC" opacity="1.000000" stroke="none" 
	d="
M330.904602,390.536804 
	C333.144775,390.871582 335.384918,391.206360 338.114868,391.972107 
	C338.604675,393.831055 338.604675,395.259033 338.604675,397.508514 
	C333.527985,397.508514 328.809937,397.508514 324.091858,397.508514 
	C320.345428,397.365814 316.598999,397.223114 312.395874,397.185303 
	C305.308075,397.290222 298.677032,397.290222 291.657776,397.290222 
	C291.657776,395.255371 291.657776,393.577637 291.657776,391.930634 
	C301.604919,389.308685 302.488098,388.361969 302.982788,379.429810 
	C302.977631,377.606415 303.033783,376.189209 302.961060,374.364777 
	C302.808136,351.873596 302.960999,329.787201 302.655792,307.707153 
	C302.560089,300.784424 300.500305,299.564087 291.308777,298.603455 
	C291.208588,297.098694 291.103546,295.520264 290.970184,293.516937 
	C295.761169,292.820984 300.306854,292.138184 304.859528,291.505737 
	C309.262604,290.894012 313.672882,290.334167 318.558319,289.688324 
	C318.558319,292.959564 318.558319,295.721619 318.558319,299.815460 
	C324.838165,293.433502 331.419037,289.976166 339.619659,289.116821 
	C342.375488,289.083466 344.753693,289.175415 347.562317,289.145142 
	C358.516327,291.413300 367.438873,296.264191 373.707428,305.800385 
	C379.325256,317.230927 380.475739,328.793030 376.562531,341.346497 
	C373.340485,346.293701 370.953186,351.253296 367.255371,354.874817 
	C357.637573,364.294250 345.685089,365.652954 332.742157,362.843719 
	C329.165192,360.391907 325.829651,358.184998 322.311646,355.857391 
	C322.311646,360.514404 322.311646,364.796234 322.226135,369.526581 
	C322.327728,374.080933 322.398804,378.196198 322.731812,382.290222 
	C323.134644,387.242981 325.866211,390.081329 330.904602,390.536804 
M355.049713,346.244141 
	C359.780365,333.062286 359.596008,319.765106 355.039917,306.701294 
	C351.969849,297.898499 344.524078,294.946716 335.691772,298.009216 
	C330.512543,299.805115 326.658630,303.112976 324.949493,308.332672 
	C321.336487,319.366760 321.120392,330.671356 324.307343,341.739655 
	C326.918427,350.807983 333.512573,355.173859 342.735168,355.082916 
	C348.448181,354.886963 352.602173,352.419189 355.049713,346.244141 
z"/>
<path fill="#FCFCFD" opacity="1.000000" stroke="none" 
	d="
M487.957886,303.021606 
	C485.863770,301.685120 483.769623,300.348602 480.996735,299.027222 
	C479.886261,299.053009 479.454529,299.063660 479.022827,299.074280 
	C479.022827,299.074280 478.673492,298.879822 478.474579,298.899536 
	C478.184570,297.477448 478.093506,296.035614 477.983643,294.296387 
	C484.865021,292.881714 491.536469,291.510193 498.583191,289.991516 
	C500.950592,289.633179 502.942719,289.421967 505.305054,289.153503 
	C506.267090,293.998199 506.858917,298.900146 507.522064,304.392853 
	C510.965027,300.655701 513.653015,297.179321 516.899109,294.341400 
	C522.188293,289.717407 528.434937,287.772064 535.405273,289.901215 
	C538.871643,290.960083 541.811584,292.911682 542.174866,296.999176 
	C542.531860,301.015564 541.650574,304.688538 538.003967,306.999908 
	C534.625122,309.141571 531.121521,309.088348 527.730469,306.858795 
	C526.897705,306.311279 526.100708,305.709564 525.272583,305.154724 
	C520.768433,302.136749 517.802734,302.401093 515.857483,307.586914 
	C513.271484,314.480927 511.504364,321.789185 510.333435,329.071869 
	C509.446228,334.590027 509.902893,340.349152 510.009155,345.996399 
	C510.174011,354.757111 511.988922,356.552338 520.862793,357.365112 
	C521.836426,357.454315 522.803162,357.619019 524.007263,357.779999 
	C524.007263,359.503448 524.007263,361.070709 524.007263,363.018707 
	C519.226135,363.018707 514.593628,363.018707 509.498901,363.076111 
	C505.970703,363.106506 502.904724,363.079468 499.390259,363.157898 
	C492.374878,363.263367 485.807983,363.263367 478.958679,363.263367 
	C478.958679,361.186279 478.958679,359.621948 478.958679,357.698914 
	C480.362885,357.465424 481.772156,357.231079 483.568359,356.914001 
	C485.984650,355.126465 488.014038,353.421661 490.151337,350.965454 
	C490.280579,337.285522 490.439392,324.354645 490.214996,311.430389 
	C490.166107,308.615265 488.746307,305.823914 487.957886,303.021606 
z"/>
<path fill="#48687D" opacity="1.000000" stroke="none" 
	d="
M504.994354,383.008972 
	C515.252930,385.945648 524.752563,393.333923 527.519775,401.112701 
	C518.253357,396.891510 511.138611,390.999268 505.053101,383.333862 
	C505.000793,382.999176 504.994354,383.008972 504.994354,383.008972 
z"/>
<path fill="#48687D" opacity="1.000000" stroke="none" 
	d="
M461.152710,505.152527 
	C455.459686,506.445374 450.172974,507.648163 444.886292,508.850952 
	C454.237305,501.317047 465.210236,500.250732 476.698822,501.102692 
	C471.652252,502.422607 466.605652,503.742554 461.152710,505.152527 
z"/>
<path fill="#48687D" opacity="1.000000" stroke="none" 
	d="
M505.005920,382.994263 
	C504.745117,382.936768 504.474487,382.899292 504.216919,382.819550 
	C504.161407,382.802368 504.153076,382.632751 504.123047,382.533295 
	C504.345062,382.590485 504.567047,382.647644 504.891724,382.856903 
	C504.994354,383.008972 505.000793,382.999176 505.005920,382.994263 
z"/>
<path fill="#48687D" opacity="1.000000" stroke="none" 
	d="
M297.993469,468.990356 
	C297.984375,468.979248 298.217224,468.668793 298.217224,468.668793 
	C298.217224,468.668793 298.215820,468.941071 298.120728,468.980408 
	C298.025604,469.019745 298.002533,469.001465 297.993469,468.990356 
z"/>
<path fill="#48687D" opacity="1.000000" stroke="none" 
	d="
M422.996735,185.072983 
	C423.220306,181.611465 423.300140,178.615936 423.752777,175.677856 
	C423.893066,174.767136 425.046082,174.012436 425.735443,173.186295 
	C426.674072,173.973358 427.768829,174.641357 428.493408,175.591629 
	C428.936249,176.172394 428.897614,177.183823 428.926758,178.007095 
	C429.614471,197.438339 430.295441,216.869858 430.924316,236.303070 
	C430.968872,237.680176 430.603088,239.070587 430.428131,240.454803 
	C429.948486,240.547348 429.468842,240.639893 428.989227,240.732437 
	C428.019409,238.399277 426.373749,236.118271 426.189056,233.724533 
	C424.951233,217.683456 424.024384,201.618408 422.996735,185.072983 
z"/>
<path fill="#48687D" opacity="1.000000" stroke="none" 
	d="
M317.390839,163.304840 
	C324.374329,159.758224 331.190704,156.979691 339.281525,158.206528 
	C327.918152,164.177444 316.554779,170.148361 305.191406,176.119263 
	C307.470093,170.007339 311.959351,166.428925 317.390839,163.304840 
z"/>
<path fill="#49687D" opacity="1.000000" stroke="none" 
	d="
M644.166626,175.102463 
	C645.388733,174.197479 646.248230,173.188568 647.292542,172.931885 
	C648.592712,172.612289 650.579895,172.370361 651.301331,173.080017 
	C652.267944,174.030930 652.897095,176.041550 652.632568,177.394012 
	C651.815796,181.570190 643.610107,186.684235 639.325439,186.033920 
	C636.125366,185.548233 635.100098,183.822189 637.275391,181.308121 
	C639.204407,179.078659 641.661926,177.306442 644.166626,175.102463 
z"/>
<path fill="#48687D" opacity="1.000000" stroke="none" 
	d="
M223.664551,174.720093 
	C224.929916,173.734558 225.933716,173.010605 226.937515,172.286652 
	C227.413071,172.480499 227.888626,172.674332 228.364182,172.868179 
	C227.354492,178.317215 226.344803,183.766235 225.249695,189.676270 
	C218.726059,184.840103 218.439087,180.830627 223.664551,174.720093 
z"/>
<path fill="#FBFCFC" opacity="1.000000" stroke="none" 
	d="
M556.097961,314.002380 
	C556.097961,308.529022 556.097961,303.554962 556.097961,298.096191 
	C552.772034,298.096191 549.691284,298.096191 546.697632,298.096191 
	C545.096802,293.587189 546.736816,291.879639 550.479126,289.823425 
	C555.863159,286.865204 561.076172,282.994049 565.127930,278.419403 
	C567.933411,275.251862 569.951294,272.781036 574.936890,274.356232 
	C574.936890,279.206390 574.936890,284.423645 574.936890,290.253754 
	C580.528748,290.253754 585.584778,290.253754 590.802734,290.253754 
	C590.802734,293.017822 590.802734,295.153198 590.802734,297.829773 
	C585.798157,297.829773 580.734436,297.829773 575.603455,297.829773 
	C575.603455,314.290466 575.495911,330.213562 575.685059,346.133087 
	C575.728027,349.752899 576.437744,353.651733 580.720886,355.051788 
	C585.105835,356.485138 588.481262,354.631653 591.211060,351.230133 
	C595.210510,353.708344 593.740479,356.380188 591.537537,358.895355 
	C586.972046,364.107910 575.050110,365.948730 566.635193,362.855408 
	C559.462524,360.218750 556.161926,355.012878 556.112488,345.977356 
	C556.055054,335.485748 556.098328,324.993622 556.097961,314.002380 
z"/>
<path fill="#193F5A" opacity="1.000000" stroke="none" 
	d="
M323.970093,397.804932 
	C328.809937,397.508514 333.527985,397.508514 338.604675,397.508514 
	C338.604675,395.259033 338.604675,393.831055 338.491943,392.025574 
	C345.612396,387.257294 352.807465,382.802185 360.091003,378.496643 
	C365.676941,375.194611 371.395691,372.118195 377.018372,368.877228 
	C394.152985,359.000458 416.295197,370.318085 416.766937,390.170288 
	C417.242920,410.202393 415.990753,430.284851 415.204926,450.333862 
	C414.808472,460.448578 413.892700,470.549255 412.984436,480.635803 
	C412.092590,490.539734 408.177917,493.133972 398.266571,491.372467 
	C366.049683,485.646698 336.769928,473.264008 311.013306,452.959595 
	C302.916962,446.577118 296.845459,438.410828 292.634094,429.024109 
	C288.858459,420.608612 291.096558,414.612854 299.325775,410.354095 
	C307.440369,406.154724 315.669464,402.176544 323.970093,397.804932 
z"/>
<path fill="#193F5A" opacity="1.000000" stroke="none" 
	d="
M311.164642,224.832260 
	C310.471710,224.330948 310.017639,224.094650 309.652100,223.761292 
	C298.408691,213.507339 301.398804,211.895782 309.283203,204.810028 
	C328.482635,187.555450 350.780823,175.938171 374.878204,167.690475 
	C383.737854,164.658096 393.286865,163.212784 402.646545,162.200439 
	C410.425781,161.359039 414.625092,166.063751 415.014496,173.905334 
	C415.039246,174.404312 415.045898,174.904404 415.051514,175.404083 
	C415.356689,202.536331 415.726440,229.668091 415.942871,256.801056 
	C416.094818,275.849609 397.556244,286.765869 381.267731,276.625122 
	C368.441345,268.639801 356.377563,259.396088 344.216003,250.386139 
	C333.123962,242.168625 322.355743,233.513992 311.164642,224.832260 
z"/>
<path fill="#193F5A" opacity="1.000000" stroke="none" 
	d="
M465.316467,282.984253 
	C460.155396,279.980560 454.873047,277.569550 450.837891,273.817291 
	C448.510529,271.653137 447.181366,267.334320 447.141388,263.964691 
	C446.853088,239.661102 446.896271,215.351212 447.111938,191.045807 
	C447.160248,185.602127 448.086884,180.131165 448.994781,174.737686 
	C450.733673,164.407928 455.592621,161.380692 465.962677,163.445770 
	C486.788818,167.593079 505.919067,175.961609 524.046997,186.750397 
	C534.328979,192.869705 544.388000,199.363968 554.539673,205.701736 
	C555.242554,206.140564 555.917358,206.640625 556.543823,207.183121 
	C564.658447,214.209778 564.480774,219.269058 555.594299,225.277298 
	C532.432983,240.937119 509.190063,256.476349 485.988892,272.077301 
	C481.571533,275.047668 477.318054,278.286591 472.745819,280.990479 
	C470.714661,282.191620 468.079315,282.371185 465.316467,282.984253 
z"/>
<path fill="#193F5A" opacity="1.000000" stroke="none" 
	d="
M449.024353,438.999634 
	C448.354034,420.722015 447.659119,402.945068 447.029968,385.165833 
	C446.909271,381.755920 445.968597,377.943420 450.087921,375.935638 
	C455.588043,373.254883 461.223114,369.362640 467.346466,373.666962 
	C479.053314,381.896149 490.744354,390.192383 501.944000,399.087738 
	C517.178589,411.187836 532.148743,423.642975 546.831116,436.407257 
	C554.422913,443.007233 554.136719,446.729218 546.770325,453.742706 
	C527.914307,471.695404 505.247162,482.401672 480.033936,487.887451 
	C471.450714,489.754944 462.704987,491.037567 453.967804,491.975281 
	C448.643463,492.546753 446.953094,490.741730 447.019684,485.334167 
	C447.117920,477.361237 447.716522,469.394867 448.078033,461.424622 
	C448.409454,454.117004 448.708984,446.807953 449.024353,438.999634 
z"/>
<path fill="#1D435D" opacity="1.000000" stroke="none" 
	d="
M451.229584,281.696350 
	C464.507965,289.477966 473.731171,300.079529 476.407074,315.145660 
	C480.903656,340.462921 466.235260,365.684540 443.997314,370.283600 
	C426.283142,373.947083 409.304749,370.293457 395.338684,358.461365 
	C382.238312,347.362732 380.135162,332.136871 383.107361,316.018829 
	C387.492523,292.238312 407.217773,275.286774 430.329987,276.287628 
	C437.249176,276.587250 444.046478,279.701813 451.229584,281.696350 
M443.266357,361.936676 
	C468.482910,353.050842 473.564667,328.602448 466.901154,312.680328 
	C459.931915,296.027710 440.975616,286.603302 421.407135,289.830994 
	C394.164581,294.324432 380.957886,323.052582 395.313751,346.591003 
	C404.257080,361.254791 424.029327,367.750549 443.266357,361.936676 
z"/>
<path fill="#1B415C" opacity="1.000000" stroke="none" 
	d="
M332.983551,363.088654 
	C345.685089,365.652954 357.637573,364.294250 367.255371,354.874817 
	C370.953186,351.253296 373.340485,346.293701 376.621765,341.722198 
	C378.621582,344.533813 380.339386,347.558777 382.024200,350.602020 
	C385.123383,356.200073 384.506622,358.827545 378.983795,362.026245 
	C363.881836,370.773041 348.722809,379.421234 333.596802,388.126556 
	C332.743683,388.617554 331.984009,389.270813 331.042725,390.192688 
	C325.866211,390.081329 323.134644,387.242981 322.731812,382.290222 
	C322.398804,378.196198 322.327728,374.080933 322.562500,369.460266 
	C326.317444,366.993195 329.650482,365.040924 332.983551,363.088654 
z"/>
<path fill="#1D435D" opacity="1.000000" stroke="none" 
	d="
M487.674377,303.201355 
	C488.746307,305.823914 490.166107,308.615265 490.214996,311.430389 
	C490.439392,324.354645 490.280579,337.285522 490.122070,350.604736 
	C482.631134,348.462952 480.835205,344.642426 481.641022,337.152496 
	C482.480774,329.346924 481.747467,321.368561 482.645569,313.574493 
	C483.052704,310.041351 485.738678,306.770782 487.674377,303.201355 
z"/>
<path fill="#1A405B" opacity="1.000000" stroke="none" 
	d="
M479.043274,299.339111 
	C479.454529,299.063660 479.886261,299.053009 480.637695,299.097534 
	C480.326202,299.303070 479.694946,299.453522 479.043274,299.339111 
z"/>
<path fill="#1B415C" opacity="1.000000" stroke="none" 
	d="
M341.951813,354.842041 
	C333.512573,355.173859 326.918427,350.807983 324.307343,341.739655 
	C321.120392,330.671356 321.336487,319.366760 324.949493,308.332672 
	C326.658630,303.112976 330.512543,299.805115 335.691772,298.009216 
	C344.524078,294.946716 351.969849,297.898499 355.039917,306.701294 
	C359.596008,319.765106 359.780365,333.062286 354.506226,346.575043 
	C349.959076,349.551331 345.955444,352.196686 341.951813,354.842041 
z"/>
<path fill="#48687D" opacity="1.000000" stroke="none" 
	d="
M332.742157,362.843719 
	C329.650482,365.040924 326.317444,366.993195 322.648010,369.011780 
	C322.311646,364.796234 322.311646,360.514404 322.311646,355.857391 
	C325.829651,358.184998 329.165192,360.391907 332.742157,362.843719 
z"/>
<path fill="#4D6C80" opacity="1.000000" stroke="none" 
	d="
M342.343506,354.962463 
	C345.955444,352.196686 349.959076,349.551331 354.312012,346.902344 
	C352.602173,352.419189 348.448181,354.886963 342.343506,354.962463 
z"/>
<path fill="#FBFCFC" opacity="1.000000" stroke="none" 
	d="
M442.871796,362.011139 
	C424.029327,367.750549 404.257080,361.254791 395.313751,346.591003 
	C380.957886,323.052582 394.164581,294.324432 421.407135,289.830994 
	C440.975616,286.603302 459.931915,296.027710 466.901154,312.680328 
	C473.564667,328.602448 468.482910,353.050842 442.871796,362.011139 
M420.104462,352.672485 
	C425.130615,356.357697 430.374695,357.358002 436.667206,353.951477 
	C439.476196,349.985138 442.285156,346.018799 445.566345,341.460114 
	C448.602295,332.018707 449.165802,322.554230 445.947723,312.316681 
	C443.170929,308.112732 441.103058,303.044861 437.382050,299.991638 
	C434.647186,297.747528 429.131958,296.475800 425.925415,297.662109 
	C414.996063,301.705627 411.477966,311.107635 411.162018,322.966980 
	C411.220978,325.947937 411.279907,328.928864 411.157104,332.700378 
	C412.353729,339.883545 413.483154,347.096405 420.104462,352.672485 
z"/>
<path fill="#1A405B" opacity="1.000000" stroke="none" 
	d="
M411.338837,331.909821 
	C411.279907,328.928864 411.220978,325.947937 411.527252,322.398071 
	C412.497375,320.668121 413.149353,319.528931 413.699554,318.342590 
	C417.358765,310.452484 423.411224,305.716095 432.177704,307.104248 
	C436.923828,307.855804 441.292297,310.992615 445.831116,313.053436 
	C449.165802,322.554230 448.602295,332.018707 444.974396,341.796448 
	C430.496918,350.733032 419.952209,347.729584 412.758820,333.164001 
	C412.500031,332.639984 411.821686,332.323181 411.338837,331.909821 
z"/>
<path fill="#4D6C80" opacity="1.000000" stroke="none" 
	d="
M445.889404,312.685059 
	C441.292297,310.992615 436.923828,307.855804 432.177704,307.104248 
	C423.411224,305.716095 417.358765,310.452484 413.699554,318.342590 
	C413.149353,319.528931 412.497375,320.668121 411.586609,321.954407 
	C411.477966,311.107635 414.996063,301.705627 425.925415,297.662109 
	C429.131958,296.475800 434.647186,297.747528 437.382050,299.991638 
	C441.103058,303.044861 443.170929,308.112732 445.889404,312.685059 
z"/>
<path fill="#4D6C80" opacity="1.000000" stroke="none" 
	d="
M411.247986,332.305115 
	C411.821686,332.323181 412.500031,332.639984 412.758820,333.164001 
	C419.952209,347.729584 430.496918,350.733032 444.738281,342.092621 
	C442.285156,346.018799 439.476196,349.985138 436.027100,353.808167 
	C430.159851,353.130035 424.932678,352.595245 419.705536,352.060486 
	C413.483154,347.096405 412.353729,339.883545 411.247986,332.305115 
z"/>
<path fill="#1D435D" opacity="1.000000" stroke="none" 
	d="
M419.904999,352.366486 
	C424.932678,352.595245 430.159851,353.130035 435.681366,353.812836 
	C430.374695,357.358002 425.130615,356.357697 419.904999,352.366486 
z"/>
</svg>